<svg width="212" height="107" viewBox="0 0 212 107" fill="none" xmlns="http://www.w3.org/2000/svg">
<g clip-path="url(#clip0_2_18)">
<path d="M201.19 0.109985H10.69C4.84683 0.109985 0.110001 4.84681 0.110001 10.69V95.36C0.110001 101.203 4.84683 105.94 10.69 105.94H201.19C207.033 105.94 211.77 101.203 211.77 95.36V10.69C211.77 4.84681 207.033 0.109985 201.19 0.109985Z" fill="white" stroke="white" stroke-width="0.22" stroke-miterlimit="22.93"/>
<g clip-path="url(#clip1_2_18)">
<path d="M147.813 94.8133H64V11H147.813V94.8133Z" fill="white"/>
<path d="M147.813 56.3973V11.0373H64V94.8507H147.813V70.3973C147.627 70.3973 147.813 56.3973 147.813 56.3973Z" fill="#006FCF"/>
<path d="M137.547 51.7307H143.893V36.984H136.987V39.0373L135.68 36.984H129.707V39.5973L128.587 36.984H117.573C117.2 36.984 116.827 37.1707 116.453 37.1707C116.08 37.1707 115.893 37.3573 115.52 37.544C115.147 37.7307 114.96 37.7307 114.587 37.9173V36.984H83.04L82.1067 39.4107L81.1733 36.984H73.7067V39.5973L72.5867 36.984H66.6133L64 43.3307V51.7307H68.2933L69.04 49.6773H70.5333L71.28 51.7307H104.133V49.864L105.44 51.7307H114.587V50.6107C114.773 50.7973 115.147 50.7973 115.333 50.984C115.52 51.1707 115.893 51.1707 116.08 51.3573C116.453 51.544 116.827 51.544 117.2 51.544H123.92L124.667 49.4907H126.16L126.907 51.544H136.053V49.6773L137.547 51.7307ZM147.813 70.3973V56.584H96.48L95.1733 58.4507L93.8667 56.584H78.9333V71.3307H93.8667L95.1733 69.464L96.48 71.3307H105.813V68.1573H105.44C106.747 68.1573 107.867 67.9707 108.8 67.5973V71.5173H115.52V69.6507L116.827 71.5173H144.64C145.76 71.144 146.88 70.9573 147.813 70.3973Z" fill="white"/>
<path d="M144.64 66.8507H139.6V68.904H144.453C146.507 68.904 147.813 67.5973 147.813 65.7307C147.813 63.864 146.693 62.9307 144.827 62.9307H142.587C142.027 62.9307 141.653 62.5573 141.653 61.9973C141.653 61.4373 142.027 61.064 142.587 61.064H146.88L147.813 59.0107H142.773C140.72 59.0107 139.413 60.3173 139.413 61.9973C139.413 63.864 140.533 64.7973 142.4 64.7973H144.64C145.2 64.7973 145.573 65.1707 145.573 65.7307C145.76 66.4773 145.387 66.8507 144.64 66.8507ZM135.493 66.8507H130.453V68.904H135.307C137.36 68.904 138.667 67.5973 138.667 65.7307C138.667 63.864 137.547 62.9307 135.68 62.9307H133.44C132.88 62.9307 132.507 62.5573 132.507 61.9973C132.507 61.4373 132.88 61.064 133.44 61.064H137.733L138.667 59.0107H133.627C131.573 59.0107 130.267 60.3173 130.267 61.9973C130.267 63.864 131.387 64.7973 133.253 64.7973H135.493C136.053 64.7973 136.427 65.1707 136.427 65.7307C136.613 66.4773 136.053 66.8507 135.493 66.8507ZM128.96 60.8773V58.824H121.12V68.7173H128.96V66.664H123.36V64.6107H128.773V62.5573H123.36V60.6907H128.96V60.8773ZM116.267 60.8773C117.2 60.8773 117.573 61.4373 117.573 61.9973C117.573 62.5573 117.2 63.1173 116.267 63.1173H113.467V60.6907L116.267 60.8773ZM113.467 65.1707H114.587L117.573 68.7173H120.373L117.013 64.984C118.693 64.6107 119.627 63.4907 119.627 61.9973C119.627 60.1307 118.32 58.824 116.267 58.824H111.04V68.7173H113.28L113.467 65.1707ZM107.493 62.184C107.493 62.9307 107.12 63.4907 106.187 63.4907H103.2V60.8773H106C106.933 60.8773 107.493 61.4373 107.493 62.184ZM100.96 58.824V68.7173H103.2V65.3573H106.187C108.24 65.3573 109.733 64.0507 109.733 61.9973C109.733 60.1307 108.427 58.6373 106.373 58.6373L100.96 58.824ZM97.6 68.7173H100.4L96.48 63.6773L100.4 58.824H97.6L95.1733 61.9973L92.7467 58.824H89.9467L93.8667 63.6773L89.9467 68.5307H92.7467L95.1733 65.3573L97.6 68.7173ZM89.2 60.8773V58.824H81.36V68.7173H89.2V66.664H83.6V64.6107H89.0133V62.5573H83.6V60.6907H89.2V60.8773ZM134.56 43.3307L138.48 49.304H141.28V39.4107H139.04V45.944L138.48 45.0107L134.933 39.4107H131.947V49.304H134.187V42.584L134.56 43.3307ZM124.853 43.144L125.6 41.0907L126.347 43.144L127.28 45.384H123.92L124.853 43.144ZM128.773 49.304H131.2L126.907 39.4107H123.92L119.627 49.304H122.053L122.987 47.2507H127.84L128.773 49.304ZM118.32 49.304L119.253 47.2507H118.693C117.013 47.2507 116.08 46.1307 116.08 44.4507V44.264C116.08 42.584 117.013 41.464 118.693 41.464H121.12V39.4107H118.507C115.52 39.4107 113.84 41.464 113.84 44.264V44.4507C113.84 47.4373 115.52 49.304 118.32 49.304ZM109.92 49.304H112.16V39.5973H109.92V49.304ZM105.067 41.464C106 41.464 106.373 42.024 106.373 42.584C106.373 43.144 106 43.704 105.067 43.704H102.267V41.2773L105.067 41.464ZM102.267 45.7573H103.387L106.373 49.304H109.173L105.813 45.5707C107.493 45.1973 108.427 44.0773 108.427 42.584C108.427 40.7173 107.12 39.4107 105.067 39.4107H99.84V49.304H102.08L102.267 45.7573ZM98.16 41.464V39.4107H90.32V49.304H98.16V47.2507H92.56V45.1973H97.9733V43.144H92.56V41.2773H98.16V41.464ZM81.1733 49.304H83.2267L86.0267 41.2773V49.304H88.2667V39.4107H84.5333L82.2933 46.1307L80.0533 39.4107H76.32V49.304H78.56V41.2773L81.1733 49.304ZM69.04 43.144L69.7867 41.0907L70.5333 43.144L71.4667 45.384H68.1067L69.04 43.144ZM72.96 49.304H75.3867L71.0933 39.4107H68.2933L64 49.304H66.4267L67.36 47.2507H72.2133L72.96 49.304Z" fill="#006FCF"/>
</g>
</g>
<defs>
<clipPath id="clip0_2_18">
<rect width="211.88" height="106.05" fill="white"/>
</clipPath>
<clipPath id="clip1_2_18">
<rect width="84" height="84" fill="white" transform="translate(64 11)"/>
</clipPath>
</defs>
</svg>
