<svg xmlns="http://www.w3.org/2000/svg" xmlns:xlink="http://www.w3.org/1999/xlink" width="200" height="59" viewBox="0 0 200 59">
  <defs>
    <clipPath id="clip-app_store_armenian">
      <rect width="200" height="59"/>
    </clipPath>
  </defs>
  <g id="app_store_armenian" clip-path="url(#clip-app_store_armenian)">
    <g id="icon-applestore-en" transform="translate(5 1.48)">
      <g id="Layer_1_1_">
        <path id="Path_2" data-name="Path 2" d="M187.884,57.782H2.006A7.024,7.024,0,0,1-5,50.77V5.521a7.012,7.012,0,0,1,7.006-7H187.882a7.11,7.11,0,0,1,7.117,7V50.77a7.117,7.117,0,0,1-7.115,7.012Z"/>
      </g>
      <g id="Layer_2">
        <g id="Group_8" data-name="Group 8">
          <g id="Group_6" data-name="Group 6">
            <g id="_Group_">
              <g id="_Group_2">
                <g id="_Group_3">
                  <path id="_Path_" d="M36.642,27.945A8.316,8.316,0,0,1,40.6,20.966a8.518,8.518,0,0,0-6.71-3.628c-2.824-.3-5.559,1.689-7,1.689-1.466,0-3.681-1.66-6.066-1.611A8.938,8.938,0,0,0,13.308,22c-3.25,5.628-.827,13.9,2.289,18.453,1.558,2.227,3.379,4.715,5.763,4.626,2.332-.1,3.2-1.485,6.017-1.485,2.79,0,3.6,1.485,6.037,1.43,2.5-.039,4.079-2.234,5.582-4.484a18.417,18.417,0,0,0,2.553-5.2A8.043,8.043,0,0,1,36.642,27.945Z" fill="#fff"/>
                  <path id="_Path_2" d="M32.048,14.345a8.185,8.185,0,0,0,1.875-5.868,8.336,8.336,0,0,0-5.392,2.789,7.793,7.793,0,0,0-1.924,5.651A6.891,6.891,0,0,0,32.048,14.345Z" fill="#fff"/>
                </g>
              </g>
              <g id="Group_5" data-name="Group 5">
                <path id="Path_3" data-name="Path 3" d="M66.118,39.443H58.16l-1.911,5.644H52.878L60.416,24.21h3.5l7.537,20.877H68.027Zm-7.134-2.6h6.308l-3.109-9.157H62.1Z" fill="#fff"/>
                <path id="Path_4" data-name="Path 4" d="M87.733,37.476c0,4.729-2.532,7.77-6.352,7.77a5.16,5.16,0,0,1-4.789-2.663H76.52v7.539H73.4V29.865H76.42V32.4h.058a5.392,5.392,0,0,1,4.846-2.689C85.187,29.7,87.733,32.759,87.733,37.476Zm-3.211,0c0-3.082-1.592-5.107-4.022-5.107-2.387,0-3.993,2.068-3.993,5.107,0,3.066,1.606,5.12,3.993,5.12C82.93,42.6,84.522,40.585,84.522,37.476Z" fill="#fff"/>
                <path id="Path_5" data-name="Path 5" d="M104.486,37.476c0,4.729-2.531,7.77-6.354,7.77a5.16,5.16,0,0,1-4.788-2.663h-.072v7.539H90.147V29.865h3.024V32.4h.058a5.392,5.392,0,0,1,4.847-2.689C101.938,29.7,104.486,32.759,104.486,37.476Zm-3.211,0c0-3.082-1.593-5.107-4.022-5.107-2.387,0-3.993,2.068-3.993,5.107,0,3.066,1.605,5.12,3.993,5.12,2.429,0,4.022-2.011,4.022-5.12Z" fill="#fff"/>
                <path id="Path_6" data-name="Path 6" d="M115.559,39.268c.229,2.07,2.241,3.43,4.99,3.43,2.633,0,4.527-1.358,4.527-3.226,0-1.62-1.143-2.591-3.848-3.256l-2.707-.651c-3.834-.926-5.613-2.719-5.613-5.628,0-3.6,3.139-6.076,7.6-6.076,4.41,0,7.434,2.475,7.536,6.076h-3.151c-.19-2.084-1.912-3.342-4.431-3.342s-4.239,1.272-4.239,3.125c0,1.476,1.1,2.344,3.793,3.009l2.3.565c4.285,1.013,6.064,2.732,6.064,5.787,0,3.9-3.113,6.352-8.063,6.352-4.629,0-7.756-2.389-7.955-6.165h3.2Z" fill="#fff"/>
                <path id="Path_7" data-name="Path 7" d="M135.118,26.262v3.6h2.9V32.34h-2.9v8.392c0,1.305.582,1.911,1.853,1.911A9.712,9.712,0,0,0,138,42.571V45.03a8.678,8.678,0,0,1-1.732.146c-3.084,0-4.285-1.157-4.285-4.109V32.34h-2.213V29.866h2.213v-3.6Z" fill="#fff"/>
                <path id="Path_8" data-name="Path 8" d="M139.689,37.476c0-4.789,2.819-7.8,7.221-7.8s7.22,3.01,7.22,7.8-2.794,7.8-7.22,7.8S139.689,42.278,139.689,37.476Zm11.256,0c0-3.285-1.5-5.225-4.035-5.225s-4.036,1.954-4.036,5.225c0,3.3,1.5,5.222,4.036,5.222s4.035-1.924,4.035-5.222Z" fill="#fff"/>
                <path id="Path_9" data-name="Path 9" d="M156.7,29.865h2.981v2.592h.071a3.629,3.629,0,0,1,3.661-2.75,4.792,4.792,0,0,1,1.07.115v2.923a4.371,4.371,0,0,0-1.4-.188,3.146,3.146,0,0,0-3.271,3.019,2.9,2.9,0,0,0,.017.483v9.028H156.7V29.865Z" fill="#fff"/>
                <path id="Path_10" data-name="Path 10" d="M178.9,40.615c-.42,2.764-3.112,4.659-6.555,4.659-4.43,0-7.178-2.967-7.178-7.726,0-4.774,2.766-7.871,7.046-7.871,4.21,0,6.858,2.893,6.858,7.508v1.07h-10.75v.188a3.966,3.966,0,0,0,3.6,4.3,4.108,4.108,0,0,0,.5.013,3.438,3.438,0,0,0,3.514-2.142l2.969,0Zm-10.563-4.543h7.609a3.657,3.657,0,0,0-3.449-3.857c-.1-.006-.188-.006-.283-.005a3.857,3.857,0,0,0-3.877,3.831C168.332,36.049,168.332,36.062,168.332,36.072Z" fill="#fff"/>
              </g>
            </g>
          </g>
        </g>
      </g>
    </g>
    <path id="Path_51" data-name="Path 51" d="M38.526,7.068a1.831,1.831,0,0,0,1.488-1.752c0-1.524-.864-2.376-3.444-2.4H33.738V3.96h2.856c1.572,0,2.268.528,2.268,1.284,0,1.2-1.392,1.368-2.4,1.368H34.074V7.668H36.5c1.764,0,2.64.66,2.64,1.752V12H40.29V9.528A2.287,2.287,0,0,0,38.526,7.068ZM50.79,11.124,49.074,9.672a4.564,4.564,0,0,0,.132-1.1V2.916H48.054V8.568a2.4,2.4,0,1,1-4.8,0V2.916H42.1V8.568a3.261,3.261,0,0,0,3.564,3.516,3.35,3.35,0,0,0,2.988-1.416l1.5,1.272Zm2.268-2.556V2.916H51.906V8.568a3.261,3.261,0,0,0,3.564,3.516,3.249,3.249,0,0,0,3.54-3.516V2.916H57.858V8.568a2.4,2.4,0,1,1-4.8,0Zm16.836,2.556L68.178,9.672a4.564,4.564,0,0,0,.132-1.1V2.916H67.158V8.568a2.4,2.4,0,1,1-4.8,0V2.916H61.206V8.568a3.261,3.261,0,0,0,3.564,3.516,3.35,3.35,0,0,0,2.988-1.416l1.5,1.272Zm7.812-4.536v1.98a2.4,2.4,0,1,1-4.8,0V2.916H69.642V3.96h2.112V8.568a3.552,3.552,0,0,0,7.1,0V6.588Zm10.572-.4V5.136h-6.3V2.916H80.826V8.568a3.552,3.552,0,0,0,7.1,0V7.812H86.778v.756a2.4,2.4,0,1,1-4.8,0V6.192Zm7.092,4.752H91.386V2.916h-1.14V12h4.8a.556.556,0,0,1,.552.576V12.9H96.75v-.528A1.363,1.363,0,0,0,95.37,10.944Zm5.9-6.36a2.941,2.941,0,0,0-2.4,1.164V2.916h-1.14V12h1.14V9.516h.012V8.124a2.265,2.265,0,0,1,2.388-2.508,2.333,2.333,0,0,1,2.412,2.616V9.3h1.152V8.232A3.326,3.326,0,0,0,101.274,4.584Zm15.852,1.608V5.136H111.57V2.916h-1.14V12h4.188a.673.673,0,0,1,.7.576V12.9h1.152v-.528a1.523,1.523,0,0,0-1.584-1.428H111.57V6.192Z" transform="translate(28 7)" fill="#fff"/>
  </g>
</svg>
