<svg id="calculator" xmlns="http://www.w3.org/2000/svg" width="512" height="512" viewBox="0 0 512 512">
  <rect id="backgroundrect" width="512" height="512" fill="none"/>
  <g id="svg_1">
    <g id="svg_2">
      <path id="svg_3" d="M402.3,0H109.7A46.753,46.753,0,0,0,63,46.7V465.2a46.753,46.753,0,0,0,46.7,46.7H402.3A46.753,46.753,0,0,0,449,465.2V46.7A46.753,46.753,0,0,0,402.3,0Zm29.8,465.3a29.875,29.875,0,0,1-29.8,29.8H109.7a29.875,29.875,0,0,1-29.8-29.8V46.7a29.875,29.875,0,0,1,29.8-29.8H402.3a29.875,29.875,0,0,1,29.8,29.8V465.3Z"/>
    </g>
  </g>
  <g id="svg_4">
    <g id="svg_5">
      <path id="svg_6" d="M395.4,45.2H116.6a8.493,8.493,0,0,0-8.5,8.5V165.8a8.493,8.493,0,0,0,8.5,8.5H395.4a8.493,8.493,0,0,0,8.5-8.5V53.7A8.493,8.493,0,0,0,395.4,45.2Zm-8.5,112.1H125.1V62.1H386.9v95.2Z" fill="#72c02c"/>
    </g>
  </g>
  <g id="svg_55">
    <g id="svg_57">
      <path id="svg_6_1_" d="M395.4,45.2H116.6a8.493,8.493,0,0,0-8.5,8.5V165.8a8.493,8.493,0,0,0,8.5,8.5H395.4a8.493,8.493,0,0,0,8.5-8.5V53.7A8.493,8.493,0,0,0,395.4,45.2Zm-8.5,112.1H125.1V62.1H386.9v95.2Z"/>
    </g>
  </g>
  <g id="svg_7">
    <g id="svg_8">
      <path id="svg_9" d="M142.6,209.9H131.7a28.594,28.594,0,0,0-28.6,28.6v10.9A28.594,28.594,0,0,0,131.7,278h10.9a28.594,28.594,0,0,0,28.6-28.6V238.5A28.594,28.594,0,0,0,142.6,209.9Zm11.7,39.4A11.715,11.715,0,0,1,142.6,261H131.7A11.715,11.715,0,0,1,120,249.3V238.4a11.715,11.715,0,0,1,11.7-11.7h10.9a11.715,11.715,0,0,1,11.7,11.7Z"/>
    </g>
  </g>
  <g id="svg_10">
    <g id="svg_11">
      <path id="svg_12" d="M222.4,209.9H211.5a28.594,28.594,0,0,0-28.6,28.6v10.9A28.594,28.594,0,0,0,211.5,278h10.9A28.594,28.594,0,0,0,251,249.4V238.5A28.594,28.594,0,0,0,222.4,209.9Zm11.7,39.4A11.715,11.715,0,0,1,222.4,261H211.5a11.715,11.715,0,0,1-11.7-11.7V238.4a11.715,11.715,0,0,1,11.7-11.7h10.9a11.715,11.715,0,0,1,11.7,11.7Z"/>
    </g>
  </g>
  <g id="svg_13">
    <g id="svg_14">
      <path id="svg_15" d="M301,209.9H290.1a28.594,28.594,0,0,0-28.6,28.6v10.9A28.594,28.594,0,0,0,290.1,278H301a28.594,28.594,0,0,0,28.6-28.6V238.5A28.53,28.53,0,0,0,301,209.9Zm11.7,39.4A11.715,11.715,0,0,1,301,261H290.1a11.715,11.715,0,0,1-11.7-11.7V238.4a11.715,11.715,0,0,1,11.7-11.7H301a11.715,11.715,0,0,1,11.7,11.7Z"/>
    </g>
  </g>
  <g id="svg_16">
    <g id="svg_17">
      <path id="svg_18" d="M380.3,209.9H369.4a28.594,28.594,0,0,0-28.6,28.6v10.9A28.594,28.594,0,0,0,369.4,278h10.9a28.594,28.594,0,0,0,28.6-28.6V238.5A28.594,28.594,0,0,0,380.3,209.9Zm11.6,39.4A11.715,11.715,0,0,1,380.2,261H369.3a11.715,11.715,0,0,1-11.7-11.7V238.4a11.715,11.715,0,0,1,11.7-11.7h10.9a11.715,11.715,0,0,1,11.7,11.7Z" fill="#72c02c"/>
    </g>
  </g>
  <g id="svg_59">
    <g id="svg_61">
      <path id="svg_18_1_" d="M380.3,209.9H369.4a28.594,28.594,0,0,0-28.6,28.6v10.9A28.594,28.594,0,0,0,369.4,278h10.9a28.594,28.594,0,0,0,28.6-28.6V238.5A28.594,28.594,0,0,0,380.3,209.9Zm11.6,39.4A11.715,11.715,0,0,1,380.2,261H369.3a11.715,11.715,0,0,1-11.7-11.7V238.4a11.715,11.715,0,0,1,11.7-11.7h10.9a11.715,11.715,0,0,1,11.7,11.7Z"/>
    </g>
  </g>
  <g id="svg_19">
    <g id="svg_20">
      <path id="svg_21" d="M142.6,295.1H131.7a28.594,28.594,0,0,0-28.6,28.6v10.9a28.594,28.594,0,0,0,28.6,28.6h10.9a28.594,28.594,0,0,0,28.6-28.6V323.7A28.658,28.658,0,0,0,142.6,295.1Zm11.7,39.5a11.715,11.715,0,0,1-11.7,11.7H131.7A11.715,11.715,0,0,1,120,334.6V323.7A11.715,11.715,0,0,1,131.7,312h10.9a11.715,11.715,0,0,1,11.7,11.7Z"/>
    </g>
  </g>
  <g id="svg_22">
    <g id="svg_23">
      <path id="svg_24" d="M221.8,295.1H211a28.594,28.594,0,0,0-28.6,28.6v10.9A28.594,28.594,0,0,0,211,363.2h10.9a28.594,28.594,0,0,0,28.6-28.6V323.7A28.809,28.809,0,0,0,221.8,295.1Zm11.7,39.5a11.715,11.715,0,0,1-11.7,11.7H211a11.715,11.715,0,0,1-11.7-11.7V323.7A11.715,11.715,0,0,1,211,312h10.9a11.715,11.715,0,0,1,11.7,11.7v10.9Z"/>
    </g>
  </g>
  <g id="svg_25">
    <g id="svg_26">
      <path id="svg_27" d="M301,295.1H290.1a28.594,28.594,0,0,0-28.6,28.6v10.9a28.594,28.594,0,0,0,28.6,28.6H301a28.594,28.594,0,0,0,28.6-28.6V323.7A28.594,28.594,0,0,0,301,295.1Zm11.7,39.5A11.715,11.715,0,0,1,301,346.3H290.1a11.715,11.715,0,0,1-11.7-11.7V323.7A11.715,11.715,0,0,1,290.1,312H301a11.715,11.715,0,0,1,11.7,11.7Z"/>
    </g>
  </g>
  <g id="svg_28">
    <g id="svg_29">
      <path id="svg_30" d="M142.6,380.4H131.7A28.594,28.594,0,0,0,103.1,409v10.9a28.594,28.594,0,0,0,28.6,28.6h10.9a28.594,28.594,0,0,0,28.6-28.6V409A28.658,28.658,0,0,0,142.6,380.4Zm11.7,39.5a11.715,11.715,0,0,1-11.7,11.7H131.7A11.715,11.715,0,0,1,120,419.9V409a11.715,11.715,0,0,1,11.7-11.7h10.9A11.715,11.715,0,0,1,154.3,409Z"/>
    </g>
  </g>
  <g id="svg_31">
    <g id="svg_32">
      <path id="svg_33" d="M221.8,380.4H211A28.594,28.594,0,0,0,182.4,409v10.9A28.594,28.594,0,0,0,211,448.5h10.9a28.594,28.594,0,0,0,28.6-28.6V409A28.809,28.809,0,0,0,221.8,380.4Zm11.7,39.5a11.715,11.715,0,0,1-11.7,11.7H211a11.715,11.715,0,0,1-11.7-11.7V409A11.715,11.715,0,0,1,211,397.3h10.9A11.715,11.715,0,0,1,233.6,409v10.9Z"/>
    </g>
  </g>
  <g id="svg_34">
    <g id="svg_35">
      <path id="svg_36" d="M301,380.4H290.1A28.594,28.594,0,0,0,261.5,409v10.9a28.594,28.594,0,0,0,28.6,28.6H301a28.594,28.594,0,0,0,28.6-28.6V409A28.594,28.594,0,0,0,301,380.4Zm11.7,39.5A11.715,11.715,0,0,1,301,431.6H290.1a11.715,11.715,0,0,1-11.7-11.7V409a11.715,11.715,0,0,1,11.7-11.7H301A11.715,11.715,0,0,1,312.7,409Z"/>
    </g>
  </g>
  <g id="svg_37">
    <g id="svg_38">
      <path id="svg_39" d="M380.3,295.1H369.4a28.594,28.594,0,0,0-28.6,28.6v96.2a28.594,28.594,0,0,0,28.6,28.6h10.9a28.594,28.594,0,0,0,28.6-28.6V323.7A28.658,28.658,0,0,0,380.3,295.1Zm11.6,124.8a11.715,11.715,0,0,1-11.7,11.7H369.3a11.715,11.715,0,0,1-11.7-11.7V323.7A11.715,11.715,0,0,1,369.3,312h10.9a11.715,11.715,0,0,1,11.7,11.7Z"/>
    </g>
  </g>
</svg>
