<svg xmlns="http://www.w3.org/2000/svg" xmlns:xlink="http://www.w3.org/1999/xlink" width="200" height="59" viewBox="0 0 200 59">
  <defs>
    <clipPath id="clip-chrome_armenian">
      <rect width="200" height="59"/>
    </clipPath>
  </defs>
  <g id="chrome_armenian" clip-path="url(#clip-chrome_armenian)">
    <path id="Path_2" data-name="Path 2" d="M187.884,57.782H2.006A7.024,7.024,0,0,1-5,50.77V5.521a7.012,7.012,0,0,1,7.006-7H187.882a7.11,7.11,0,0,1,7.117,7V50.77a7.117,7.117,0,0,1-7.115,7.012Z" transform="translate(5 1.48)"/>
    <g id="Group_10" data-name="Group 10" transform="translate(3.428 2.608)">
      <path id="Path_37" data-name="Path 37" d="M73.152,40.055a9.479,9.479,0,0,1-7.444,3.369,9.9,9.9,0,0,1-3.866-.744,9.477,9.477,0,0,1-5.158-5.159,10.367,10.367,0,0,1,0-7.718,9.448,9.448,0,0,1,5.158-5.171,9.9,9.9,0,0,1,3.866-.744,8.9,8.9,0,0,1,6.922,3.056L70.54,28.98a6.521,6.521,0,0,0-2.1-1.7,6.093,6.093,0,0,0-2.729-.575,7.17,7.17,0,0,0-2.625.483,6.265,6.265,0,0,0-2.155,1.385,6.573,6.573,0,0,0-1.45,2.194,8.052,8.052,0,0,0,0,5.772,6.552,6.552,0,0,0,1.45,2.195,6.284,6.284,0,0,0,2.155,1.385,7.17,7.17,0,0,0,2.625.482,6.272,6.272,0,0,0,2.978-.691,7.737,7.737,0,0,0,2.325-1.92Z" fill="#fff"/>
      <path id="Path_38" data-name="Path 38" d="M75.294,24.305h2.9v5.563l-.157,2.063h.157a4.35,4.35,0,0,1,1.62-1.527,4.687,4.687,0,0,1,2.377-.615,5.679,5.679,0,0,1,2.168.378,3.964,3.964,0,0,1,1.515,1.084,4.55,4.55,0,0,1,.888,1.686,7.647,7.647,0,0,1,.287,2.154v7.914h-2.9V35.484a2.988,2.988,0,0,0-.771-2.3,2.769,2.769,0,0,0-1.946-.705,2.73,2.73,0,0,0-1.345.326,3.4,3.4,0,0,0-1.019.875,3.9,3.9,0,0,0-.653,1.254,4.843,4.843,0,0,0-.222,1.463v6.607h-2.9Z" fill="#fff"/>
      <path id="Path_39" data-name="Path 39" d="M89.869,30.207h2.742v1.934h.157a3.628,3.628,0,0,1,.64-.928,4.166,4.166,0,0,1,.914-.732,5.887,5.887,0,0,1,1.071-.5,3.322,3.322,0,0,1,1.084-.194,4.2,4.2,0,0,1,1.071.119,3.4,3.4,0,0,1,.81.326l-.836,2.637a2.89,2.89,0,0,0-.64-.195,4.8,4.8,0,0,0-.849-.064,2.887,2.887,0,0,0-1.293.289,3.328,3.328,0,0,0-1.032.787,3.6,3.6,0,0,0-.692,1.182,4.2,4.2,0,0,0-.248,1.443v6.693h-2.9v-12.8Z" fill="#fff"/>
      <path id="Path_40" data-name="Path 40" d="M105.1,29.79a6.964,6.964,0,0,1,2.69.509,6.267,6.267,0,0,1,2.116,1.424,6.508,6.508,0,0,1,1.384,2.168,7.69,7.69,0,0,1,0,5.434,6.508,6.508,0,0,1-1.384,2.168,6.248,6.248,0,0,1-2.116,1.422,7.349,7.349,0,0,1-5.38,0,6.238,6.238,0,0,1-2.116-1.422,6.508,6.508,0,0,1-1.384-2.168,7.69,7.69,0,0,1,0-5.434,6.508,6.508,0,0,1,1.384-2.168,6.272,6.272,0,0,1,2.116-1.424A6.938,6.938,0,0,1,105.1,29.79Zm0,10.944a3.6,3.6,0,0,0,1.41-.287,3.88,3.88,0,0,0,1.215-.811,3.75,3.75,0,0,0,.849-1.293,4.971,4.971,0,0,0,0-3.472,3.736,3.736,0,0,0-.849-1.293,3.886,3.886,0,0,0-1.215-.811,3.607,3.607,0,0,0-2.82,0,3.868,3.868,0,0,0-1.215.811,3.752,3.752,0,0,0-.85,1.293,4.971,4.971,0,0,0,0,3.472,3.747,3.747,0,0,0,.85,1.293,3.874,3.874,0,0,0,1.215.811A3.57,3.57,0,0,0,105.1,40.734Z" fill="#fff"/>
      <path id="Path_41" data-name="Path 41" d="M113.715,30.207h2.742v1.725h.157a4.8,4.8,0,0,1,3.944-2.142,4.459,4.459,0,0,1,2.469.666,3.913,3.913,0,0,1,1.5,1.738,5.548,5.548,0,0,1,1.75-1.711,4.838,4.838,0,0,1,2.637-.693,5.055,5.055,0,0,1,2.037.378,3.8,3.8,0,0,1,1.424,1.059,4.619,4.619,0,0,1,.85,1.633,7.375,7.375,0,0,1,.287,2.129v8.018h-2.9V35.486a3.354,3.354,0,0,0-.641-2.338,2.475,2.475,0,0,0-1.867-.666,2.558,2.558,0,0,0-1.268.313,2.951,2.951,0,0,0-.953.85,4.017,4.017,0,0,0-.6,1.24,5.19,5.19,0,0,0-.209,1.488v6.635h-2.9V35.487a3.26,3.26,0,0,0-.666-2.338,2.6,2.6,0,0,0-1.92-.666,2.433,2.433,0,0,0-1.228.313,2.982,2.982,0,0,0-.94.85,4.028,4.028,0,0,0-.6,1.24,5.19,5.19,0,0,0-.209,1.488v6.635h-2.9v-12.8Z" fill="#fff"/>
      <path id="Path_42" data-name="Path 42" d="M148.194,39.951a6.961,6.961,0,0,1-2.3,2.48,6.444,6.444,0,0,1-3.657.992,6.773,6.773,0,0,1-2.65-.51,6.262,6.262,0,0,1-2.1-1.422,6.523,6.523,0,0,1-1.385-2.156,7.661,7.661,0,0,1-.026-5.354,6.649,6.649,0,0,1,1.319-2.168,6.257,6.257,0,0,1,2.051-1.477,6.347,6.347,0,0,1,2.664-.548,6.677,6.677,0,0,1,2.651.5,5.608,5.608,0,0,1,1.972,1.383,6.064,6.064,0,0,1,1.24,2.143,8.369,8.369,0,0,1,.432,2.742v.234a1.178,1.178,0,0,0-.026.236.831.831,0,0,0-.026.209H138.5a4.075,4.075,0,0,0,.443,1.594,3.793,3.793,0,0,0,.9,1.123,3.518,3.518,0,0,0,1.188.652,4.224,4.224,0,0,0,1.28.209,3.354,3.354,0,0,0,2.063-.6,4.981,4.981,0,0,0,1.332-1.488ZM145.5,35.014a3.671,3.671,0,0,0-.248-.875,2.706,2.706,0,0,0-.6-.889,3.475,3.475,0,0,0-1.045-.691,3.8,3.8,0,0,0-1.555-.287,3.272,3.272,0,0,0-2.154.744,3.662,3.662,0,0,0-1.215,2Z" fill="#fff"/>
    </g>
    <g id="Layer_2" transform="translate(3.428 1.608)">
      <path id="Path_43" data-name="Path 43" d="M43.6,21.037H27.15a6.654,6.654,0,0,0-5.811,9.91l-8.225-14.11a17.737,17.737,0,0,1,30.483,4.2Z" fill="#f44336"/>
      <path id="Path_44" data-name="Path 44" d="M44.9,27.692a17.763,17.763,0,0,1-17.75,17.75,15.985,15.985,0,0,1-2.218-.148l7.986-14.271a6.67,6.67,0,0,0-2.44-9.1,6.593,6.593,0,0,0-3.313-.888H43.6A17.469,17.469,0,0,1,44.9,27.692Z" fill="#ffc107"/>
      <path id="Path_45" data-name="Path 45" d="M32.918,31.021,24.932,45.292h-.015A17.739,17.739,0,0,1,13.112,16.835l8.225,14.111.045.072a6.659,6.659,0,0,0,11.536,0Z" fill="#4caf50"/>
      <path id="Path_46" data-name="Path 46" d="M32.918,31.021a6.658,6.658,0,0,1-11.536,0l-.045-.074a6.656,6.656,0,0,1,5.812-9.91h.016a6.585,6.585,0,0,1,3.313.888A6.671,6.671,0,0,1,32.918,31.021Z" fill="#2196f3"/>
      <path id="Path_47" data-name="Path 47" d="M27.125,35.088a7.4,7.4,0,1,1,6.435-3.7h0A7.437,7.437,0,0,1,27.125,35.088Zm.038-13.312a5.919,5.919,0,1,0,5.113,8.874h0a5.915,5.915,0,0,0-5.113-8.874Z" fill="#fafafa"/>
    </g>
    <path id="Path_48" data-name="Path 48" d="M43.464,7.068a1.831,1.831,0,0,0,1.488-1.752c0-1.524-.864-2.376-3.444-2.4H38.676V3.96h2.856c1.572,0,2.268.528,2.268,1.284,0,1.2-1.392,1.368-2.4,1.368H39.012V7.668h2.424c1.764,0,2.64.66,2.64,1.752V12h1.152V9.528A2.287,2.287,0,0,0,43.464,7.068Zm12.264,4.056L54.012,9.672a4.564,4.564,0,0,0,.132-1.1V2.916H52.992V8.568a2.4,2.4,0,1,1-4.8,0V2.916H47.04V8.568A3.261,3.261,0,0,0,50.6,12.084a3.35,3.35,0,0,0,2.988-1.416l1.5,1.272Zm7.716-.168V2.916H62.292V6.852a2.128,2.128,0,0,1-2.256,2.256c-1.548,0-2.28-1.044-2.28-2.6V4.776H56.6V6.5c0,2.184,1.224,3.648,3.432,3.648a2.73,2.73,0,0,0,2.256-1.1v2.964h3.276V10.956ZM73.932,6.192V5.136h-6.3V2.916H66.48V8.568a3.552,3.552,0,0,0,7.1,0V7.812H72.432v.756a2.4,2.4,0,1,1-4.8,0V6.192Zm7.092,4.752H77.04V2.916H75.9V12h4.8a.556.556,0,0,1,.552.576V12.9H82.4v-.528A1.363,1.363,0,0,0,81.024,10.944Zm8.964.012V2.916H88.836V6.852A2.128,2.128,0,0,1,86.58,9.108c-1.548,0-2.28-1.044-2.28-2.6V4.776H83.148V6.5c0,2.184,1.224,3.648,3.432,3.648a2.73,2.73,0,0,0,2.256-1.1v2.964h3.276V10.956Zm11.724.168L100,9.672a4.564,4.564,0,0,0,.132-1.1V2.916H98.976V8.568a2.4,2.4,0,1,1-4.8,0V2.916H93.024V8.568a3.261,3.261,0,0,0,3.564,3.516,3.35,3.35,0,0,0,2.988-1.416l1.5,1.272Zm10.26-6.96h-7.944a.652.652,0,0,1-.744-.7V2.916h-1.14v.66a1.459,1.459,0,0,0,1.632,1.632h.624a3.909,3.909,0,0,0-1.26,2.9,4.014,4.014,0,0,0,8.028,0,3.9,3.9,0,0,0-1.272-2.9h2.076Zm-1.884,3.948a2.94,2.94,0,0,1-5.88,0,2.94,2.94,0,0,1,5.88,0Z" transform="translate(21 7.254)" fill="#fff"/>
    <rect id="Rectangle_29" data-name="Rectangle 29" width="40" height="17" rx="3" transform="translate(156 39)" fill="#5dba2f"/>
    <path id="Path_59" data-name="Path 59" d="M38.42,4.62V10H36.88V9.07a1.89,1.89,0,0,1-.735.74,2.156,2.156,0,0,1-1.055.25,1.855,1.855,0,0,1-1.415-.555A2.1,2.1,0,0,1,33.15,8V3.5H31.67V2.43h3.02V7.56a1.128,1.128,0,0,0,.27.8.962.962,0,0,0,.74.29,1.1,1.1,0,0,0,.86-.39,1.469,1.469,0,0,0,.32-.98V4.62Zm4.91-.06a1.9,1.9,0,0,1,1.445.56,2.081,2.081,0,0,1,.535,1.5V10H43.77V7.07a1.11,1.11,0,0,0-.285-.8,1.027,1.027,0,0,0-.775-.3,1.2,1.2,0,0,0-.85.335,1.32,1.32,0,0,0-.38.845V10H39.94V4.62h1.54v.94A2,2,0,0,1,43.33,4.56Zm6.77,0a1.9,1.9,0,0,1,1.445.56,2.081,2.081,0,0,1,.535,1.5V10H50.54V7.07a1.11,1.11,0,0,0-.285-.8,1.027,1.027,0,0,0-.775-.3,1.2,1.2,0,0,0-.85.335,1.32,1.32,0,0,0-.38.845v4.96H46.71V4.62h1.54v.94A2,2,0,0,1,50.1,4.56Z" transform="translate(133.33 40.57)" fill="#fff"/>
  </g>
</svg>
