<svg xmlns="http://www.w3.org/2000/svg" viewBox="0 0 211.88 106.05"><defs><style>.cls-1{fill:#fff;stroke:#fff;stroke-miterlimit:22.93;stroke-width:0.22px;}.cls-2{fill:#313033;}.cls-2,.cls-3{fill-rule:evenodd;}.cls-3{fill:#a1cd3a;}</style></defs><title>Asset 4</title><g id="Layer_2" data-name="Layer 2"><g id="Layer_1-2" data-name="Layer 1"><rect class="cls-1" x="0.11" y="0.11" width="211.66" height="105.83" rx="10.58" ry="10.58"/><polygon class="cls-2" points="69.32 65.82 53.95 65.82 53.95 41.61 69.32 41.61 69.32 44.85 57.71 44.85 57.71 51.93 68.7 51.93 68.7 55.05 57.71 55.05 57.71 62.56 69.32 62.56 69.32 65.82"/><path class="cls-2" d="M78.46,56.25h7.31L82.17,45.64h-.1L78.46,56.25Zm8.27,3H77.51l-2.21,6.54H71.38l8.74-24.21h4.06l8.74,24.21h-4Z"/><path class="cls-2" d="M98,59.07c.27,2.4,2.6,4,5.79,4s5.25-1.58,5.25-3.74c0-1.88-1.32-3-4.46-3.77l-3.14-.75C97,53.71,95,51.62,95,48.25c0-4.18,3.64-7,8.81-7s8.62,2.87,8.74,7h-3.66c-.22-2.42-2.21-3.87-5.13-3.87S98.81,45.85,98.81,48c0,1.71,1.28,2.72,4.4,3.49l2.67.65c5,1.17,7,3.17,7,6.71,0,4.53-3.61,7.36-9.34,7.36-5.37,0-9-2.77-9.23-7.15Z"/><polygon class="cls-2" points="122.77 65.82 122.77 55.9 114.25 41.61 118.44 41.61 124.61 52.3 124.73 52.3 130.9 41.61 135.06 41.61 126.53 55.9 126.53 65.82 122.77 65.82"/><path class="cls-2" d="M140,54.64h5.77c3.72,0,6-2.06,6-5.5s-2.21-5.49-6-5.49H140v11Zm6.31-13c4.61,0,7.77,3,7.77,7.53s-3.17,7.55-7.78,7.55H140v9.13h-2.28V41.61Z"/><path class="cls-2" d="M159.17,56.42H168l-4.34-12h-.1l-4.34,12Zm9.48,2H158.48l-2.68,7.41h-2.43l9.06-24.21h2.28l9,24.21h-2.42Z"/><polygon class="cls-2" points="180.01 65.82 180.01 55.35 171.34 41.61 173.95 41.61 181.11 53.1 181.2 53.1 188.36 41.61 190.98 41.61 190.98 41.61 182.31 55.35 182.31 65.82 180.01 65.82"/><path class="cls-3" d="M35,61.15l-6.1-3.52-6.1-3.52a1.24,1.24,0,0,0-1.86,1.08V69.27a1.24,1.24,0,0,0,1.86,1.08l6.1-3.52L35,63.3a1.24,1.24,0,0,0,0-2.15ZM37.43,44.9A1.24,1.24,0,0,1,39.29,46V60.07a1.24,1.24,0,0,1-1.86,1.08l-6.1-3.52-6.1-3.52a1.24,1.24,0,0,1,0-2.15l6.1-3.52,6.1-3.52ZM22.76,35.7a1.24,1.24,0,0,0-1.86,1.08V50.87a1.24,1.24,0,0,0,1.86,1.08l6.1-3.52L35,44.9a1.24,1.24,0,0,0,0-2.15l-6.1-3.52Z"/></g></g></svg>