<svg xmlns="http://www.w3.org/2000/svg" xmlns:xlink="http://www.w3.org/1999/xlink" width="200" height="59" viewBox="0 0 200 59">
  <defs>
    <clipPath id="clip-path">
      <rect id="Rectangle_26" data-name="Rectangle 26" width="200" height="59"/>
    </clipPath>
    <linearGradient id="linear-gradient" x1="54.67" y1="-41.109" x2="53.372" y2="-41.779" gradientUnits="objectBoundingBox">
      <stop offset="0" stop-color="#00a0ff"/>
      <stop offset="0.007" stop-color="#00a1ff"/>
      <stop offset="0.26" stop-color="#00beff"/>
      <stop offset="0.512" stop-color="#00d2ff"/>
      <stop offset="0.76" stop-color="#00dfff"/>
      <stop offset="1" stop-color="#00e3ff"/>
    </linearGradient>
    <linearGradient id="linear-gradient-2" x1="69.428" y1="-122.776" x2="67.048" y2="-122.776" gradientUnits="objectBoundingBox">
      <stop offset="0" stop-color="#ffe000"/>
      <stop offset="0.409" stop-color="#ffbd00"/>
      <stop offset="0.775" stop-color="orange"/>
      <stop offset="1" stop-color="#ff9c00"/>
    </linearGradient>
    <linearGradient id="linear-gradient-3" x1="42.501" y1="-82.17" x2="41.137" y2="-83.939" gradientUnits="objectBoundingBox">
      <stop offset="0" stop-color="#ff3a44"/>
      <stop offset="1" stop-color="#c31162"/>
    </linearGradient>
    <linearGradient id="linear-gradient-4" x1="41.45" y1="-79.451" x2="42.059" y2="-80.241" gradientUnits="objectBoundingBox">
      <stop offset="0" stop-color="#32a071"/>
      <stop offset="0.068" stop-color="#2da771"/>
      <stop offset="0.476" stop-color="#15cf74"/>
      <stop offset="0.801" stop-color="#06e775"/>
      <stop offset="1" stop-color="#00f076"/>
    </linearGradient>
  </defs>
  <g id="google_play_armenian_" data-name="google play_armenian " clip-path="url(#clip-path)">
    <g id="google_play_armenian" data-name="google play_armenian" clip-path="url(#clip-path)">
      <path id="Path_10" data-name="Path 10" d="M187.2,57.654H2.805A7.4,7.4,0,0,1-4.57,50.277V6.021A7.394,7.394,0,0,1,2.805-1.354H187.2a7.4,7.4,0,0,1,7.379,7.375V50.277A7.4,7.4,0,0,1,187.2,57.654Z" transform="translate(5.023 1.354)"/>
      <path id="Path_11" data-name="Path 11" d="M10.461,9.688a2.953,2.953,0,0,0-.687,2.081V44.534a2.956,2.956,0,0,0,.687,2.082l.107.106L28.922,28.367v-.432L10.57,9.578Z" transform="translate(5.023 1.354)" fill="url(#linear-gradient)"/>
      <path id="Path_12" data-name="Path 12" d="M35.043,34.488l-6.119-6.122v-.432l6.119-6.119.139.078,7.249,4.119c2.069,1.175,2.069,3.1,0,4.279l-7.249,4.115Z" transform="translate(5.023 1.354)" fill="url(#linear-gradient-2)"/>
      <path id="Path_13" data-name="Path 13" d="M35.181,34.409l-6.258-6.258L10.461,46.616c.682.722,1.809.813,3.078.091l21.642-12.3" transform="translate(5.023 1.354)" fill="url(#linear-gradient-3)"/>
      <path id="Path_14" data-name="Path 14" d="M35.181,21.892,13.539,9.6c-1.271-.723-2.4-.632-3.078.092L28.924,28.151Z" transform="translate(5.023 1.354)" fill="url(#linear-gradient-4)"/>
      <g id="Group_236" data-name="Group 236">
        <path id="Path_22" data-name="Path 22" d="M96.441,30.6a6.3,6.3,0,1,0,6.325,6.3,6.211,6.211,0,0,0-6.325-6.3Zm0,10.12A3.828,3.828,0,1,1,100,36.9a3.645,3.645,0,0,1-3.559,3.821ZM82.644,30.6a6.3,6.3,0,1,0,6.325,6.3,6.212,6.212,0,0,0-6.325-6.3Zm0,10.12A3.828,3.828,0,1,1,86.2,36.9a3.645,3.645,0,0,1-3.556,3.821ZM66.231,32.534v2.673h6.4a5.573,5.573,0,0,1-1.456,3.365,6.544,6.544,0,0,1-4.94,1.958,7.113,7.113,0,1,1,0-14.225,6.816,6.816,0,0,1,4.821,1.91l1.886-1.887a9.331,9.331,0,0,0-6.707-2.7,9.786,9.786,0,1,0,0,19.573,8.947,8.947,0,0,0,6.826-2.746A8.829,8.829,0,0,0,75.376,34.2a8.771,8.771,0,0,0-.143-1.671h-9Zm67.123,2.076a5.858,5.858,0,0,0-5.394-4.01,5.989,5.989,0,0,0-5.943,6.3,6.167,6.167,0,0,0,6.253,6.3,6.27,6.27,0,0,0,5.252-2.793l-2.148-1.432a3.6,3.6,0,0,1-3.1,1.742,3.206,3.206,0,0,1-3.054-1.909l8.424-3.484Zm-8.593,2.1a3.457,3.457,0,0,1,3.295-3.675,2.441,2.441,0,0,1,2.339,1.336Zm-6.848,6.11h2.768V24.3h-2.768Zm-4.535-10.81h-.1a4.367,4.367,0,0,0-3.317-1.409,6.307,6.307,0,0,0,0,12.6,4.3,4.3,0,0,0,3.317-1.432h.1v.906c0,2.411-1.289,3.7-3.365,3.7a3.489,3.489,0,0,1-3.175-2.243l-2.41,1a6,6,0,0,0,5.585,3.723c3.246,0,5.991-1.909,5.991-6.563V30.982h-2.626V32.01ZM110.2,40.721a3.616,3.616,0,0,1-3.508-3.795,3.643,3.643,0,0,1,3.508-3.842,3.549,3.549,0,0,1,3.365,3.842,3.521,3.521,0,0,1-3.365,3.795ZM146.323,24.3H139.7V42.821h2.763V35.8h3.86a5.76,5.76,0,1,0,0-11.5Zm.072,8.927h-3.933V26.878H146.4a3.175,3.175,0,1,1,0,6.35Zm17.083-2.661a5.192,5.192,0,0,0-4.932,2.836L161,34.426a2.618,2.618,0,0,1,2.525-1.357,2.66,2.66,0,0,1,2.907,2.382v.191a6.119,6.119,0,0,0-2.884-.715c-2.645,0-5.337,1.453-5.337,4.169,0,2.479,2.169,4.075,4.6,4.075a3.9,3.9,0,0,0,3.526-1.812h.1V42.79H169.1v-7.1c0-3.29-2.453-5.124-5.622-5.124Zm-.334,10.152c-.9,0-2.167-.453-2.167-1.573,0-1.43,1.572-1.978,2.931-1.978a4.927,4.927,0,0,1,2.525.619,3.351,3.351,0,0,1-3.289,2.932Zm15.679-9.746L175.655,39h-.1l-3.289-8.03h-2.978l4.933,11.223-2.813,6.243h2.883l7.6-17.466Zm-24.9,11.849h2.763V24.3h-2.763Z" transform="translate(5.023 1.354)" fill="#fff"/>
      </g>
    </g>
    <path id="Path_52" data-name="Path 52" d="M38.526,7.068a1.831,1.831,0,0,0,1.488-1.752c0-1.524-.864-2.376-3.444-2.4H33.738V3.96h2.856c1.572,0,2.268.528,2.268,1.284,0,1.2-1.392,1.368-2.4,1.368H34.074V7.668H36.5c1.764,0,2.64.66,2.64,1.752V12H40.29V9.528A2.287,2.287,0,0,0,38.526,7.068ZM50.79,11.124,49.074,9.672a4.564,4.564,0,0,0,.132-1.1V2.916H48.054V8.568a2.4,2.4,0,1,1-4.8,0V2.916H42.1V8.568a3.261,3.261,0,0,0,3.564,3.516,3.35,3.35,0,0,0,2.988-1.416l1.5,1.272Zm2.268-2.556V2.916H51.906V8.568a3.261,3.261,0,0,0,3.564,3.516,3.249,3.249,0,0,0,3.54-3.516V2.916H57.858V8.568a2.4,2.4,0,1,1-4.8,0Zm16.836,2.556L68.178,9.672a4.564,4.564,0,0,0,.132-1.1V2.916H67.158V8.568a2.4,2.4,0,1,1-4.8,0V2.916H61.206V8.568a3.261,3.261,0,0,0,3.564,3.516,3.35,3.35,0,0,0,2.988-1.416l1.5,1.272Zm7.812-4.536v1.98a2.4,2.4,0,1,1-4.8,0V2.916H69.642V3.96h2.112V8.568a3.552,3.552,0,0,0,7.1,0V6.588Zm10.572-.4V5.136h-6.3V2.916H80.826V8.568a3.552,3.552,0,0,0,7.1,0V7.812H86.778v.756a2.4,2.4,0,1,1-4.8,0V6.192Zm7.092,4.752H91.386V2.916h-1.14V12h4.8a.556.556,0,0,1,.552.576V12.9H96.75v-.528A1.363,1.363,0,0,0,95.37,10.944Zm5.9-6.36a2.941,2.941,0,0,0-2.4,1.164V2.916h-1.14V12h1.14V9.516h.012V8.124a2.265,2.265,0,0,1,2.388-2.508,2.333,2.333,0,0,1,2.412,2.616V9.3h1.152V8.232A3.326,3.326,0,0,0,101.274,4.584Zm15.852,1.608V5.136H111.57V2.916h-1.14V12h4.188a.673.673,0,0,1,.7.576V12.9h1.152v-.528a1.523,1.523,0,0,0-1.584-1.428H111.57V6.192Z" transform="translate(28 7)" fill="#fff"/>
  </g>
</svg>
