<svg xmlns="http://www.w3.org/2000/svg" width="384.517" height="478.108" viewBox="0 0 384.517 478.108">
  <g id="Group_2" data-name="Group 2" transform="translate(-1155.483 -30)">
    <g id="Ellipse_1" data-name="Ellipse 1" transform="translate(1218 30)" fill="#fff" stroke="#000" stroke-width="16">
      <circle cx="161" cy="161" r="161" stroke="none"/>
      <circle cx="161" cy="161" r="153" fill="none"/>
    </g>
    <g id="Path_2" data-name="Path 2" transform="matrix(0.819, 0.574, -0.574, 0.819, 1280.66, 317.865)">
      <path d="M 10 217.7393341064453 C 4.761694431304932 217.7393341064453 0.5 214.2126159667969 0.5 209.8776702880859 L 0.5 0.5000003576278687 L 19.5 0.5000003576278687 L 19.5 209.8776702880859 C 19.5 214.2126159667969 15.23830509185791 217.7393341064453 10 217.7393341064453 Z" stroke="none"/>
      <path d="M 1 1 L 1 209.8776702880859 C 1 213.9369201660156 5.037388801574707 217.2393341064453 10 217.2393341064453 C 14.96261119842529 217.2393341064453 19 213.9369201660156 19 209.8776702880859 L 19 1 L 1 1 M 0 0 L 20 0 L 20 209.8776702880859 C 20 214.4956970214844 15.52286148071289 218.2393341064453 10 218.2393341064453 C 4.477138519287109 218.2393341064453 0 214.4956970214844 0 209.8776702880859 L 0 0 Z" stroke="none" fill="#000"/>
    </g>
  </g>
</svg>
