<?xml version="1.0" encoding="utf-8"?>
<!-- Generator: Adobe Illustrator 23.0.2, SVG Export Plug-In . SVG Version: 6.00 Build 0)  -->
<svg version="1.1" id="Layer_1" xmlns="http://www.w3.org/2000/svg" xmlns:xlink="http://www.w3.org/1999/xlink" x="0px" y="0px"
	 viewBox="0 0 300 300" style="enable-background:new 0 0 300 300;" xml:space="preserve">
<style type="text/css">
	.st0{fill:#EAEAE8;}
	.st1{fill:#FFFFFF;}
	.st2{fill:#DBDADA;}
	.st3{fill:#5DBA2F;}
	.st4{fill:#7F8080;}
</style>
<title>why-save</title>
<g>
	<rect x="72.3" y="92.5" class="st0" width="155.5" height="156.4"/>
	<rect x="75.2" y="96.1" class="st1" width="149.3" height="149.3"/>
	<polygon class="st1" points="224.5,223.4 224.5,223 224.2,223.4 	"/>
	<polygon class="st1" points="201.5,245.7 201.5,246 201.8,245.7 	"/>
	<polygon class="st2" points="224.2,223.4 201.5,223.4 201.5,245.7 201.8,245.7 	"/>
	<polygon class="st0" points="201.8,245.7 224.5,245.7 224.5,223.4 224.2,223.4 	"/>
	<rect x="72.3" y="51.1" class="st2" width="155.5" height="35.6"/>
	<rect x="72.3" y="92.5" class="st3" width="155.5" height="35.6"/>
	<rect x="99.8" y="76" class="st4" width="6.8" height="26.6"/>
	<rect x="192.8" y="76" class="st4" width="6.8" height="26.6"/>
	<path d="M108.9,203.9l2.3-4.5c3.6,2,7.6,3.2,11.7,3.2c11,0,16.5-9.1,15.5-22.7c-1.9,5.8-7.4,9.1-14.9,9.1
		c-8.2,0.7-15.5-5.4-16.2-13.6c-0.1-0.9-0.1-1.7,0-2.6c-0.5-8.8,6.1-16.3,14.9-16.9c0.8,0,1.5,0,2.3,0c12.3,0,20.1,9.1,20.1,24.6
		c0,16.2-8.1,26.9-21.1,26.9C118.4,207.6,113.3,206.4,108.9,203.9z M137.4,172.8c-0.2-6.5-5.7-11.6-12.2-11.4c-0.1,0-0.3,0-0.4,0
		c-6.2-0.6-11.7,3.9-12.3,10.1c0,0.5-0.1,1,0,1.6c-0.3,5.8,4.2,10.8,10,11.1c0.5,0,1.1,0,1.6,0c6.5,0.8,12.4-3.8,13.2-10.3
		C137.3,173.5,137.4,173.2,137.4,172.8z"/>
	<path d="M194,182.2c0,16.5-7.4,25.6-21.1,25.6s-21.1-9.1-21.1-25.6s7.4-25.6,21.1-25.6C186.3,156,194,165.4,194,182.2z
		 M157.8,182.2c0,13.9,5.2,20.7,15.2,20.7s15.2-6.8,15.2-20.7c0-13.9-5.2-20.7-15.2-20.7S157.8,168.3,157.8,182.2z"/>
</g>
</svg>
