<?xml version="1.0" encoding="utf-8"?>
<!-- Generator: Adobe Illustrator 23.0.2, SVG Export Plug-In . SVG Version: 6.00 Build 0)  -->
<svg version="1.1" id="Layer_1" xmlns="http://www.w3.org/2000/svg" xmlns:xlink="http://www.w3.org/1999/xlink" x="0px" y="0px"
	 viewBox="0 0 300 300" style="enable-background:new 0 0 300 300;" xml:space="preserve">
<style type="text/css">
	.st0{fill:#057487;}
	.st1{fill:#5DBA2F;}
	.st2{opacity:0.39;fill:#FFFFFF;enable-background:new    ;}
	.st3{fill:#BBD162;}
	.st4{fill:#8CB843;}
	.st5{fill:#DBDCDA;}
	.st6{fill:#00A9CE;}
	.st7{fill:#CB8F2B;}
	.st8{fill:#F9BF61;}
	.st9{fill:#FCDCAE;}
	.st10{fill:#D6862D;}
	.st11{fill:#E6AB23;}
	.st12{fill:#42B400;}
	.st13{opacity:0.15;fill:#090909;enable-background:new    ;}
</style>
<title>why-save</title>
<g>
	<path class="st0" d="M70.2,197.1l27.5,25.1c0.9,1,2.4,1.3,3.7,0.7l82.1-29.5"/>
	<path class="st1" d="M70.2,195.7l27.5,25.1c0.9,1,2.4,1.3,3.7,0.7l82.1-29.5"/>
	<path class="st2" d="M148.6,194.4l-25.5,8.4c0,0-9.4-13.7-28.5-3.4l-7.4-6l38.5-4.4L148.6,194.4z"/>
	<path class="st0" d="M46.7,146.1l-26.8,40.2c-0.4,0.8-0.3,1.7,0.3,2.3c0.3,0.3,0.6,0.4,1,0.3h258.1c0.9,0.1,1.6-0.6,1.7-1.5
		c0-0.1,0-0.1,0-0.2c0-0.4-0.1-0.7-0.3-1l-25.1-39.9c-0.8-1.3-2.2-2-3.7-2H50.7C49.2,144.1,47.6,144.8,46.7,146.1z"/>
	<path class="st1" d="M46.7,144.8L19.9,185c-0.4,0.8-0.3,1.7,0.3,2.3c0.3,0.3,0.6,0.4,1,0.3h258.1c0.9,0.1,1.6-0.6,1.7-1.5
		c0-0.1,0-0.1,0-0.2c0-0.4-0.1-0.7-0.3-1l-25.1-39.9c-0.8-1.3-2.2-2-3.7-2H50.7C49.2,142.8,47.6,143.5,46.7,144.8z"/>
	<path class="st3" d="M45.7,168.6l7.7-15.1c0,0,24.5,5.4,28.2-9h141.1c0,0,6.7,9.4,26.8,8.7l8.4,15.1c0,0-21.1,2-22.1,9.7H67.8
		C67.8,177.6,64.5,166.2,45.7,168.6z"/>
	<ellipse class="st4" cx="151.3" cy="162.6" rx="39.5" ry="14.7"/>
	<path class="st5" d="M156,170.6v2.7h-8.7v-2.7c-7-0.7-12.7-2.3-13.4-5l10.1-0.7c0.7,2,4.4,2.7,8,2.7s6-0.7,6-1.7s-1-1-3.7-1.3
		l-8.4-0.7c-6-0.3-11.4-1.7-11.4-4.4c0-2.7,5-4.4,12.4-4.7v-2.7h9v2.7c6.7,0.7,11.7,2.3,12.4,4.7l-10.1,0.7c-0.3-2-4-2.7-7-2.7
		c-3,0-5.4,0.7-5.4,1.7s1,1,3.4,1.3l8.4,0.7c7,0.7,11.4,2,11.4,4.4C168.7,168.6,163,170.3,156,170.6z"/>
	<path class="st0" d="M37,138.4l-26.8,40.2c-0.4,0.8-0.3,1.7,0.3,2.3c0.3,0.3,0.6,0.4,1,0.3h258.1c0.9,0.1,1.6-0.6,1.7-1.5
		c0-0.1,0-0.1,0-0.2c0-0.4-0.1-0.7-0.3-1l-25.1-39.9c-0.8-1.3-2.2-2-3.7-2H40.7C39.2,136.4,37.7,137.1,37,138.4z"/>
	<path class="st1" d="M37,137.1l-26.8,40.2c-0.4,0.8-0.3,1.7,0.3,2.3c0.3,0.3,0.6,0.4,1,0.3h258.1c0.9,0.1,1.6-0.6,1.7-1.5
		c0-0.1,0-0.1,0-0.2c0-0.4-0.1-0.7-0.3-1l-25.1-39.9c-0.8-1.3-2.2-2-3.7-2H40.7C39.2,135.1,37.7,135.8,37,137.1z"/>
	<path class="st2" d="M35.7,162.2l7.7-13.7c0,0,24.5-4,28.2-8h141.1c0,0,6.7,7.7,26.8,7l8.4,15.4c0,0-21.1-3.7-22.1,10.1H57.8
		C57.8,172.6,54.4,159.9,35.7,162.2z"/>
	<ellipse class="st6" cx="141.2" cy="154.9" rx="39.5" ry="14.7"/>
	<path class="st5" d="M145.9,162.9v2.7h-8.7v-2.7c-7-0.7-12.7-2.3-13.4-5l10.1-0.7c0.7,2,4.4,2.7,8,2.7s6-0.7,6-1.7s-1-1-3.7-1.3
		l-8.4-0.7c-6-0.3-11.4-1.7-11.4-4.4c0-2.7,5-4.4,12.4-4.7v-2.7h9v2.7c6.7,0.7,11.7,2.3,12.4,4.7l-10.1,0.7c-0.3-2-4-2.7-7-2.7
		c-3,0-5.4,0.7-5.4,1.7s1,1,3.4,1.3l8.4,0.7c7,0.7,11.4,2,11.4,4.4C158.7,160.9,153,162.6,145.9,162.9z"/>
	<path class="st0" d="M55.8,155.9l-26.8,40.2c-0.4,0.8-0.3,1.7,0.3,2.3c0.3,0.3,0.6,0.4,1,0.3h258.1c0.9,0.1,1.6-0.6,1.7-1.5
		c0-0.1,0-0.1,0-0.2c0-0.4-0.1-0.7-0.3-1l-25.1-39.9c-0.8-1.3-2.2-2-3.7-2H59.4C58,153.9,56.5,154.5,55.8,155.9z"/>
	<path class="st7" d="M159.3,148.5c0,6-13.1,10.7-28.8,10.7s-28.8-4.7-28.8-10.7v-5.4c3-4.7,55.3-5.7,57.6-0.7L159.3,148.5z"/>
	<ellipse class="st8" cx="130.5" cy="142.8" rx="28.8" ry="10.7"/>
	<path class="st9" d="M139.2,152.8c-2.9,0.3-5.8,0.4-8.7,0.3c-16.1,0-28.8-4.7-28.8-10.7c0-4,5.7-7.4,14.4-9
		c2.8-0.6,5.6-1.1,8.4-1.3L139.2,152.8z"/>
	<path class="st10" d="M153,142.1v0.7c-0.7-4.4-10.1-7.7-21.4-7.7s-20.8,3.4-21.4,7.7v-0.7c0-4.7,9.7-8.4,21.8-8.4
		C143.2,133.7,153,137.4,153,142.1z"/>
	<path class="st11" d="M153,142.8c-0.7,4.4-10.1,7.7-21.4,7.7s-20.8-3.4-21.4-7.7c0.7-4.4,10.1-7.7,21.4-7.7S151.9,138.4,153,142.8z
		"/>
	<ellipse class="st10" cx="130.8" cy="142.1" rx="10.4" ry="3.4"/>
	<ellipse class="st8" cx="130.8" cy="140.8" rx="10.4" ry="3.4"/>
	<path class="st7" d="M159.3,140.8c0,6-13.1,10.7-28.8,10.7s-28.8-4.7-28.8-10.7v-5.4c3-4.7,55.3-5.7,57.6-0.7L159.3,140.8z"/>
	<ellipse class="st8" cx="130.5" cy="135.1" rx="28.8" ry="10.7"/>
	<path class="st9" d="M139.2,145.1c-2.9,0.3-5.8,0.4-8.7,0.3c-16.1,0-28.8-4.7-28.8-10.7c0-4,5.7-7.4,14.4-9
		c2.8-0.6,5.6-1.1,8.4-1.3L139.2,145.1z"/>
	<path class="st10" d="M153,134.4v0.7c-0.7-4.4-10.1-7.7-21.4-7.7s-20.8,3.4-21.4,7.7v-0.7c0-4.7,9.7-8.4,21.8-8.4
		C143.2,126,153,129.7,153,134.4z"/>
	<path class="st11" d="M153,135.1c-0.7,4.4-10.1,7.7-21.4,7.7s-20.8-3.4-21.4-7.7c0.7-4.4,10.1-7.7,21.4-7.7S151.9,130.7,153,135.1z
		"/>
	<ellipse class="st10" cx="130.8" cy="134.4" rx="10.4" ry="3.4"/>
	<ellipse class="st8" cx="130.8" cy="133.1" rx="10.4" ry="3.4"/>
	<path class="st7" d="M160.7,134.1c0,6-13.1,10.7-28.8,10.7s-28.8-4.7-28.8-10.7v-5.4c3-4.7,55.3-5.7,57.6-0.7L160.7,134.1z"/>
	<ellipse class="st8" cx="131.5" cy="128.4" rx="28.8" ry="10.7"/>
	<path class="st9" d="M140.6,138.8c-2.9,0.3-5.8,0.4-8.7,0.3c-16.1,0-28.8-4.7-28.8-10.7c0-4,5.7-7.4,14.4-9
		c2.8-0.6,5.6-1.1,8.4-1.3L140.6,138.8z"/>
	<path class="st10" d="M154,127.7v0.7c-0.7-4.4-10.1-7.7-21.4-7.7s-20.8,3.4-21.4,7.7v-0.7c0-4.7,9.7-8.4,21.8-8.4
		C144.9,119.3,154,123,154,127.7z"/>
	<path class="st11" d="M154,128.4c-0.7,4.4-10.1,7.7-21.4,7.7s-20.8-3.4-21.4-7.7c0.7-4.4,10.1-7.7,21.4-7.7S153.3,124,154,128.4z"
		/>
	<ellipse class="st10" cx="131.8" cy="127.7" rx="10.4" ry="3.4"/>
	<ellipse class="st8" cx="131.8" cy="126.7" rx="10.4" ry="3.4"/>
	<path class="st7" d="M158.3,127.4c0,6-13.1,10.7-28.8,10.7s-28.8-4.7-28.8-10.7V122c3-4.7,55.3-5.7,57.6-0.7V127.4z"/>
	<ellipse class="st8" cx="129.5" cy="122" rx="28.8" ry="10.7"/>
	<path class="st9" d="M138.2,132.1c-2.9,0.3-5.8,0.4-8.7,0.3c-16.1,0-28.8-4.7-28.8-10.7c0-4,5.7-7.4,14.4-9
		c2.8-0.6,5.6-1.1,8.4-1.3L138.2,132.1z"/>
	<path class="st10" d="M151.9,121v0.7c-0.7-4.4-10.1-7.7-21.4-7.7s-20.8,3.4-21.4,7.7V121c0-4.7,9.7-8.4,21.8-8.4
		C142.9,112.6,151.9,116.6,151.9,121z"/>
	<path class="st11" d="M151.6,121.7c-0.7,4.4-10.1,7.7-21.4,7.7s-20.8-3.4-21.4-7.7c0.7-4.4,10.1-7.7,21.4-7.7
		S150.9,117.3,151.6,121.7z"/>
	<ellipse class="st10" cx="129.8" cy="121" rx="10.4" ry="3.4"/>
	<ellipse class="st8" cx="129.8" cy="120" rx="10.4" ry="3.4"/>
	<path class="st7" d="M159.3,119.7c0,6-13.1,10.7-28.8,10.7s-28.8-4.7-28.8-10.7v-5.4c3-4.7,55.3-5.7,57.6-0.7L159.3,119.7z"/>
	<ellipse class="st8" cx="130.5" cy="114" rx="28.8" ry="10.7"/>
	<path class="st9" d="M139.2,124.4c-2.9,0.3-5.8,0.4-8.7,0.3c-16.1,0-28.8-4.7-28.8-10.7c0-4,5.7-7.4,14.4-9
		c2.8-0.6,5.6-1.1,8.4-1.3L139.2,124.4z"/>
	<path class="st10" d="M153,113.3v0.7c-0.7-4.4-10.1-7.7-21.4-7.7s-20.8,3.4-21.4,7.7v-0.7c0-4.7,9.7-8.4,21.8-8.4
		C143.2,105.3,153,108.9,153,113.3z"/>
	<path class="st11" d="M153,114c-0.7,4.4-10.1,7.7-21.4,7.7s-20.8-3.4-21.4-7.7c0.7-4.4,10.1-7.7,21.4-7.7S151.9,109.6,153,114z"/>
	<ellipse class="st10" cx="130.8" cy="113.3" rx="10.4" ry="3.4"/>
	<ellipse class="st8" cx="130.8" cy="112.3" rx="10.4" ry="3.4"/>
	<path class="st7" d="M161,110.9c0,6-13.1,10.7-28.8,10.7s-28.8-4.7-28.8-10.7v-5.4c3-4.7,55.3-5.7,57.6-0.7L161,110.9z"/>
	<ellipse class="st8" cx="132.2" cy="105.3" rx="28.8" ry="10.7"/>
	<path class="st9" d="M140.9,115.3c-2.9,0.3-5.8,0.4-8.7,0.3c-16.1,0-28.8-4.7-28.8-10.7c0-4,5.7-7.4,14.4-9
		c2.8-0.6,5.6-1.1,8.4-1.3L140.9,115.3z"/>
	<path class="st10" d="M154.6,104.6v0.7c-0.7-4.4-10.1-7.7-21.4-7.7c-11.4,0-20.8,3.4-21.4,7.7v-0.7c0-4.7,9.7-8.4,21.8-8.4
		S154.6,99.9,154.6,104.6z"/>
	<path class="st11" d="M154.6,105.3c-0.7,4.4-10.1,7.7-21.4,7.7c-11.4,0-20.8-3.4-21.4-7.7c0.7-4.4,10.1-7.7,21.4-7.7
		C144.6,97.5,153.6,100.9,154.6,105.3z"/>
	<ellipse class="st10" cx="132.5" cy="104.6" rx="10.4" ry="3.4"/>
	<ellipse class="st8" cx="132.5" cy="103.2" rx="10.4" ry="3.4"/>
	<path class="st7" d="M165,101.9c0,6-13.1,10.7-28.8,10.7s-28.8-4.7-28.8-10.7v-5.4c3-4.7,55.3-5.7,57.6-0.7V101.9z"/>
	<ellipse class="st8" cx="136.2" cy="96.5" rx="28.8" ry="10.7"/>
	<path class="st9" d="M144.9,106.6c-2.9,0.3-5.8,0.4-8.7,0.3c-16.1,0-28.8-4.7-28.8-10.7c0-4,5.7-7.4,14.4-9
		c2.8-0.6,5.6-1.1,8.4-1.3L144.9,106.6z"/>
	<path class="st10" d="M158.3,95.5v0.7c-0.7-4.4-10.1-7.7-21.4-7.7c-11.4,0-20.8,3.4-21.4,7.7v-0.7c0-4.7,9.7-8.4,21.8-8.4
		C148.6,87.5,158.3,91.2,158.3,95.5z"/>
	<path class="st11" d="M158.3,96.2c-0.7,4.4-10.1,7.7-21.4,7.7c-11.4,0-20.8-3.4-21.4-7.7c0.7-4.4,10.1-7.7,21.4-7.7
		C148.3,88.5,157.6,92.2,158.3,96.2z"/>
	<ellipse class="st10" cx="136.5" cy="95.5" rx="10.4" ry="3.4"/>
	<ellipse class="st8" cx="136.5" cy="94.5" rx="10.4" ry="3.4"/>
	<path class="st7" d="M162.7,92.9c0,6-13.1,10.7-28.8,10.7S105,98.9,105,92.9v-5.4c2.7-4.7,55.3-5.7,57.6-0.7V92.9z"/>
	<ellipse class="st8" cx="133.9" cy="87.5" rx="28.8" ry="10.7"/>
	<path class="st9" d="M142.6,97.5c-2.9,0.3-5.8,0.4-8.7,0.3c-16.1,0-28.8-4.7-28.8-10.7c0-4,5.7-7.4,14.4-9c2.8-0.6,5.6-1.1,8.4-1.3
		L142.6,97.5z"/>
	<path class="st10" d="M156.3,86.8v0.7c-0.7-4.4-10.1-7.7-21.4-7.7s-20.8,3.4-21.4,7.7v-0.7c0-4.7,9.7-8.4,21.8-8.4
		C147.3,78.4,156.3,82.1,156.3,86.8z"/>
	<path class="st11" d="M156.3,87.5c-0.7,4.4-10.1,7.7-21.4,7.7s-20.8-3.4-21.4-7.7c0.7-4.4,10.1-7.7,21.4-7.7S155.3,83.1,156.3,87.5
		z"/>
	<ellipse class="st10" cx="134.2" cy="86.8" rx="10.4" ry="3.4"/>
	<ellipse class="st8" cx="134.2" cy="85.5" rx="10.4" ry="3.4"/>
	<path class="st6" d="M55.8,154.5l-26.8,40.2c-0.4,0.8-0.3,1.7,0.3,2.3c0.3,0.3,0.6,0.4,1,0.3h258.1c0.9,0.1,1.6-0.6,1.7-1.5
		c0-0.1,0-0.1,0-0.2c0-0.4-0.1-0.7-0.3-1l-25.1-39.9c-0.8-1.3-2.2-2-3.7-2H59.4C58,152.5,56.5,153.2,55.8,154.5z"/>
	<path class="st1" d="M55.8,154.5l-26.8,40.2c-0.4,0.8-0.3,1.7,0.3,2.3c0.3,0.3,0.6,0.4,1,0.3h258.1c0.9,0.1,1.6-0.6,1.7-1.5
		c0-0.1,0-0.1,0-0.2c0-0.4-0.1-0.7-0.3-1l-25.1-39.9c-0.8-1.3-2.2-2-3.7-2H59.4C58,152.5,56.5,153.2,55.8,154.5z"/>
	<path class="st2" d="M54.4,179.3l7.7-13.1c0,0,24.5-2.7,28.2-7.4h141.1c0,0,6.7,7,26.8,6.4l8.4,14.7c0,0-21.1-2.3-22.1,9.4H76.5
		C76.5,189.4,73.2,177,54.4,179.3z"/>
	<ellipse class="st12" cx="160.3" cy="172.6" rx="39.5" ry="14.7"/>
	<path class="st5" d="M165,180.3v2.7h-8.7v-2.7c-7-0.7-12.7-2.3-13.4-5l10.1-0.7c0.7,2,4.4,2.7,8,2.7s6-0.7,6-1.7s-1-1-3.7-1.3
		l-8.4-0.7c-6-0.3-11.4-1.7-11.4-4.4c0-2.7,5-4.4,12.4-4.7v-2.7h8.7v2.7c6.7,0.7,11.7,2.3,12.4,4.7l-10.1,0.7c-0.3-2-4-2.7-7-2.7
		c-3,0-5.4,0.7-5.4,1.7s1,1,3.4,1.3l8.4,0.7c7,0.7,11.4,2,11.4,4.4C177.4,178.3,172.1,180,165,180.3z"/>
	<path class="st13" d="M170,167.6c3.4,2.1,4.5,6.6,2.4,10c-0.3,0.5-0.7,0.9-1.1,1.3l0,0c-11,11.4-28.6,13.4-41.9,4.7l-22.1-14.4
		l51.9-8.7L170,167.6z"/>
	<path class="st13" d="M234.7,180.3c4.1,2.6,5.3,8,2.7,12.1c-0.3,0.5-0.6,0.9-1,1.3l0,0c-13,13.3-33.7,15.6-49.3,5.4l-41.6-26.8
		l22.8-35.2L234.7,180.3z"/>
	<path class="st13" d="M219,160.9c3.4,2.1,4.5,6.6,2.4,10c-0.3,0.5-0.7,0.9-1.1,1.3l0,0c-11,11.4-28.6,13.4-41.9,4.7l-22.1-14.4
		l51.9-8.7L219,160.9z"/>
	<path class="st7" d="M207.6,153.5c0,6-13.1,10.7-28.8,10.7s-28.8-4.7-28.8-10.7v-5.4c3-4.7,55.3-5.7,57.6-0.7L207.6,153.5z"/>
	<ellipse class="st8" cx="178.8" cy="148.2" rx="28.8" ry="10.7"/>
	<path class="st9" d="M187.8,158.2c-2.9,0.3-5.8,0.4-8.7,0.3c-16.1,0-28.8-4.7-28.8-10.7c0-5,9.7-9.4,22.8-10.4L187.8,158.2z"/>
	<path class="st10" d="M201.2,147.1v0.7c-0.7-4.4-10.1-7.7-21.4-7.7c-11.4,0-20.8,3.4-21.4,7.7v-0.7c0-4.7,9.7-8.4,21.8-8.4
		C192.2,138.8,201.2,142.8,201.2,147.1z"/>
	<path class="st11" d="M201.2,147.8c-0.7,4.4-10.1,7.7-21.4,7.7c-11.4,0-20.8-3.4-21.4-7.7c0.7-4.4,10.1-7.7,21.4-7.7
		C191.2,140.1,200.5,143.5,201.2,147.8z"/>
	<ellipse class="st10" cx="179.1" cy="147.1" rx="10.4" ry="3.4"/>
	<ellipse class="st8" cx="179.1" cy="146.1" rx="10.4" ry="3.4"/>
	<path class="st7" d="M203.9,147.1c0,6-13.1,10.7-28.8,10.7s-29.2-4.7-29.2-10.7v-5.4c3-4.7,55.3-5.7,57.6-0.7v6H203.9z"/>
	<ellipse class="st8" cx="174.7" cy="141.8" rx="28.8" ry="10.7"/>
	<path class="st9" d="M183.8,151.8c-2.9,0.3-5.8,0.4-8.7,0.3c-16.1,0-28.8-4.7-28.8-10.7c0-5,9.7-9.4,22.8-10.4L183.8,151.8z"/>
	<path class="st10" d="M197.2,141.1v0.7c-0.7-4.4-10.1-7.7-21.4-7.7c-11.4,0-20.8,3.4-21.4,7.7v-0.7c0-4.7,9.7-8.4,21.8-8.4
		C188.1,132.7,197.2,136.4,197.2,141.1z"/>
	<path class="st11" d="M197.2,141.4c-0.7,4.4-10.1,7.7-21.4,7.7c-11.4,0-20.8-3.4-21.4-7.7c0.7-4.4,10.1-7.7,21.4-7.7
		C187.1,133.7,196.5,137.4,197.2,141.4z"/>
	<ellipse class="st10" cx="175.1" cy="141.1" rx="10.4" ry="3.4"/>
	<ellipse class="st8" cx="175.1" cy="139.8" rx="10.4" ry="3.4"/>
	<path class="st7" d="M208.3,140.4c0,6-13.1,10.7-28.8,10.7s-28.8-4.7-28.8-10.7v-5.4c3-4.7,55.3-5.7,57.6-0.7L208.3,140.4z"/>
	<ellipse class="st8" cx="179.4" cy="134.7" rx="28.8" ry="10.7"/>
	<path class="st9" d="M188.1,145.1c-2.9,0.3-5.8,0.4-8.7,0.3c-16.1,0-28.8-4.7-28.8-10.7c0-5,9.7-9.4,22.8-10.4L188.1,145.1z"/>
	<path class="st10" d="M201.9,134.1v0.7c-0.7-4.4-10.1-7.7-21.4-7.7s-20.8,3.4-21.4,7.7v-0.7c0-4.7,9.7-8.4,21.8-8.4
		C192.2,126,201.9,129.7,201.9,134.1z"/>
	<path class="st11" d="M201.9,134.7c-0.7,4.4-10.1,7.7-21.4,7.7s-20.8-3.4-21.4-7.7c0.7-4.4,10.1-7.7,21.4-7.7
		S200.9,130.4,201.9,134.7z"/>
	<ellipse class="st10" cx="179.8" cy="134.1" rx="10.4" ry="3.4"/>
	<ellipse class="st8" cx="179.8" cy="133.1" rx="10.4" ry="3.4"/>
	<path class="st7" d="M162,164.9c0,6-13.1,10.7-28.8,10.7s-28.8-4.7-28.8-10.7v-5.4c3-4.7,55.3-5.7,57.6-0.7V164.9z"/>
	<ellipse class="st8" cx="133.2" cy="159.5" rx="28.8" ry="10.7"/>
	<path class="st9" d="M141.9,169.6c-2.9,0.3-5.8,0.4-8.7,0.3c-16.1,0-28.8-4.7-28.8-10.7c0-5,9.7-9.4,22.8-10.4L141.9,169.6z"/>
	<path class="st10" d="M155.3,158.9v0.7c-0.7-4.4-10.1-7.7-21.4-7.7s-20.8,3.4-21.4,7.7v-0.7c0-4.7,9.7-8.4,21.8-8.4
		C146.3,150.5,155.3,154.2,155.3,158.9z"/>
	<path class="st11" d="M155.3,159.2c-0.7,4.4-10.1,7.7-21.4,7.7s-20.8-3.4-21.4-7.7c0.7-4.4,10.1-7.7,21.4-7.7
		S154.6,155.2,155.3,159.2z"/>
	<ellipse class="st10" cx="133.5" cy="158.9" rx="10.4" ry="3.4"/>
	<ellipse class="st8" cx="133.5" cy="157.5" rx="10.4" ry="3.4"/>
	<path class="st7" d="M157.3,156.9c0,6-13.1,10.7-28.8,10.7s-28.8-4.7-28.8-10.7v-5.4c3-4.7,55.3-5.7,57.6-0.7L157.3,156.9z"/>
	<ellipse class="st8" cx="128.5" cy="151.5" rx="28.8" ry="10.7"/>
	<path class="st9" d="M137.2,161.6c-2.9,0.3-5.8,0.4-8.7,0.3c-16.1,0-28.8-4.7-28.8-10.7c0-5,9.7-9.4,22.8-10.4L137.2,161.6z"/>
	<path class="st10" d="M150.9,150.8v0.7c-0.7-4.4-10.1-7.7-21.4-7.7s-20.8,3.4-21.4,7.7v-0.7c0-4.7,9.7-8.4,21.8-8.4
		S150.9,146.1,150.9,150.8z"/>
	<path class="st11" d="M150.9,151.2c-1,4.4-10.4,7.7-21.8,7.7s-20.8-3.4-21.4-7.7c0.7-4.4,10.1-7.7,21.4-7.7
		S149.9,147.1,150.9,151.2z"/>
	<ellipse class="st10" cx="128.8" cy="150.8" rx="10.4" ry="3.4"/>
	<ellipse class="st8" cx="128.8" cy="149.5" rx="10.4" ry="3.4"/>
</g>
</svg>
