<?xml version="1.0" encoding="utf-8"?>
<!-- Generator: Adobe Illustrator 23.0.2, SVG Export Plug-In . SVG Version: 6.00 Build 0)  -->
<svg version="1.1" id="Layer_1" xmlns="http://www.w3.org/2000/svg" xmlns:xlink="http://www.w3.org/1999/xlink" x="0px" y="0px"
	 viewBox="0 0 300 300" style="enable-background:new 0 0 300 300;" xml:space="preserve">
<style type="text/css">
	.st0{fill:#FFFFFF;stroke:#D3D3D3;stroke-miterlimit:10;}
	.st1{fill:#EEEDEE;}
	.st2{opacity:0.5;fill:#A0B5AD;enable-background:new    ;}
	.st3{fill:#5DBA2F;}
	.st4{fill:#C5C7D8;}
	.st5{fill:#C9905C;}
	.st6{fill:#EABC8C;}
	.st7{fill:#A5714F;}
	.st8{fill:#492A12;}
	.st9{fill:#804E33;}
	.st10{opacity:0.3;fill:#FFFFFF;enable-background:new    ;}
	.st11{fill:#C4925C;}
	.st12{opacity:0.15;fill:#090909;enable-background:new    ;}
</style>
<title>why-save</title>
<g>
	
		<rect x="79.5" y="63.1" transform="matrix(0.1316 -0.9913 0.9913 0.1316 -4.1961 295.2103)" class="st0" width="173.8" height="173.8"/>
	
		<rect x="100.3" y="75.2" transform="matrix(0.1316 -0.9913 0.9913 0.1316 -0.1429 292.4337)" class="st1" width="133.1" height="142.3"/>
	<polygon class="st2" points="228.6,221.7 171.3,214.3 233.2,187 	"/>
	<polygon class="st3" points="99.1,117.6 105.1,70.9 246.3,89.7 240.3,134.3 177.7,86.5 	"/>
	<polygon class="st4" points="162.4,190.2 134.8,186.3 103,160.1 132,147.7 	"/>
	<polygon class="st5" points="168.4,146.7 210.2,129.3 204.2,172.9 162.4,190.6 	"/>
	<polygon class="st6" points="133.1,119.4 175.2,102.1 210.2,129.3 168.4,146.7 	"/>
	<polygon class="st7" points="168.4,146.7 162.4,190.6 127.4,163.3 133.1,119.4 	"/>
	<path class="st8" d="M174.1,150.9l9.6-3.9l-1.4,10.3l-9.6,3.9L174.1,150.9z M182.3,156.9l1.4-9.6l-8.8,3.5l-1.4,9.6L182.3,156.9z"
		/>
	<path class="st8" d="M178.4,156.9c0.4-0.4,1.1-0.4,0.7,0l0,0l-2.5,1.1l0,0c0-0.4,0.4-0.7,1.1-0.7l0,0v0.4h0.4
		C178,157.6,178.4,156.9,178.4,156.9z"/>
	<polygon class="st8" points="178.4,153.8 178.4,154.1 178,157.3 178,157.6 177.7,157.6 177.7,157.3 178.4,154.5 	"/>
	<path class="st8" d="M180.1,149.9l-0.4,3.2c0,0.7-0.4,1.1-1.1,1.4l0,0v-0.7h-0.4v0.7l0,0c-0.4,0.4-0.7,0-0.7-0.7l0.4-3.2
		L180.1,149.9z"/>
	<path class="st8" d="M189.7,147.4v0.4c1.1-0.4,1.8,0,1.8,0.7l-2.1,0.7l-0.4,3.2c0,0.4-0.4,0.7-0.7,1.1c-0.4,0.4-0.7,0-0.7-0.4h0.4
		c0,0.4,0,0.4,0.4,0.4c0.4,0,0.4-0.4,0.4-0.7l0.4-3.2l-2.1,0.7c0.3-1.1,1.1-2,2.1-2.5C189,147.7,189.7,147.4,189.7,147.4z"/>
	<path class="st8" d="M185.1,146.3l9.6-3.9l-1.4,10.3l-9.6,3.9L185.1,146.3z M193.2,152.3l1.4-9.6l-8.8,3.5l-1.4,9.6L193.2,152.3z"
		/>
	<path class="st8" d="M191.1,146v0.4l0,0C190.7,146.7,190.7,146.3,191.1,146z"/>
	<path class="st8" d="M191.8,146.3v0.4l0,0C191.5,146.7,191.5,146.7,191.8,146.3z"/>
	<path class="st8" d="M190.4,146v0.4l0,0C190,146.3,190,146.3,190.4,146z"/>
	<path class="st8" d="M192.2,145.3v0.4l0,0C191.8,145.6,191.8,145.6,192.2,145.3z"/>
	<path class="st8" d="M191.5,144.9v0.4l0,0C191.1,145.6,191.1,145.6,191.5,144.9z"/>
	<polygon class="st8" points="202.1,147.4 202.1,147.7 197.8,149.5 197.8,148.8 	"/>
	<polygon class="st8" points="201.7,140.7 202.4,142.1 201.7,142.4 201.4,147 200.7,147.4 201.4,142.8 201,142.8 	"/>
	<path class="st8" d="M196.1,141.7l9.6-3.9l-1.1,10.3L195,152L196.1,141.7z M204.2,147.7l1.1-9.6l-8.8,3.5l-1.1,9.9L204.2,147.7z"/>
	<polygon class="st8" points="200,141.7 200.3,143.1 200,143.1 199.2,147.7 198.9,148.1 199.6,143.5 198.9,143.5 	"/>
	<path class="st9" d="M168.4,147L168.4,147l-35-26.9v-0.4h0.4l35,26.9C168.8,146.7,168.4,147,168.4,147z"/>
	<polygon class="st10" points="187.9,112 146.1,129.3 146.1,129.3 146.1,129.3 140.1,173.2 146.1,177.8 152.2,134.3 193.9,116.6 	
		"/>
	<path class="st11" d="M162.8,190.2L162.8,190.2l5.7-43.5v-0.4l41.8-17.3h0.4v0.4l0,0l-41.8,17.3L162.8,190.2z"/>
	<polygon class="st10" points="195.4,135.3 195.4,135.3 195.4,135.3 160.3,108.4 153.2,111.3 188.3,138.5 182.6,182.1 189.7,179.2 	
		"/>
	<polygon class="st12" points="230,240.1 197.8,242.9 121.4,233 43.5,80.5 185.8,64.2 216.6,67.7 	"/>
	
		<rect x="42.4" y="65.3" transform="matrix(0.9971 -7.671903e-02 7.671903e-02 0.9971 -11.2928 10.3715)" class="st0" width="173.8" height="173.8"/>
	
		<rect x="57.7" y="81.9" transform="matrix(0.9971 -7.671903e-02 7.671903e-02 0.9971 -11.0077 10.3197)" class="st1" width="142.3" height="133.1"/>
	<polygon class="st2" points="204.9,209.3 147.2,213.9 202.1,174.3 	"/>
	<polygon class="st3" points="56.6,138.5 52.7,87.6 194.6,76.6 198.2,121.2 127,87.9 	"/>
	<polygon class="st4" points="133.8,192 105.8,194.5 69.3,175.3 94.8,157.3 	"/>
	<polygon class="st5" points="130.2,148.4 167.7,122.6 170.9,166.8 133.8,192.3 	"/>
	<polygon class="st6" points="90.2,129.3 127.7,103.5 167.7,122.6 130.2,148.4 	"/>
	<polygon class="st7" points="130.2,148.4 133.8,192.3 93.8,173.2 90.2,129.3 	"/>
	<path class="st8" d="M136.9,151.3l8.5-6l0.7,10.3l-8.5,6L136.9,151.3z M146.1,155.5l-0.7-9.6l-8.1,5.7l0.7,9.6
		C138,161.2,146.2,155.5,146.1,155.5z"/>
	<path class="st8" d="M142.3,156.6c0.4-0.4,0.7-0.4,0.7,0l0,0l-2.1,1.4l0,0c0-0.4,0.4-0.7,0.7-1.1l0,0v0.4h0.4L142.3,156.6z"/>
	<polygon class="st8" points="141.9,153.4 141.9,153.8 141.9,156.6 141.9,156.9 141.9,157.3 141.9,156.9 141.5,153.8 141.5,153.4 	
		"/>
	<path class="st8" d="M142.6,149.2l0.4,3.2c0,0.6-0.3,1.1-0.7,1.4l0,0V153h-0.4v0.7l0,0c-0.4,0.4-0.7,0-1.1-0.4l-0.4-3.2
		L142.6,149.2z"/>
	<path class="st8" d="M151.1,144.5v0.4c1.1-0.7,1.8-0.4,2.1,0.4l-1.8,1.4l0.4,3.2c-0.1,0.5-0.3,1-0.7,1.4c-0.4,0.4-0.7,0-0.7-0.4
		l0,0l0.4-0.4l0,0c0,0.2,0.2,0.4,0.4,0.4c0.4,0,0.4-0.4,0.4-0.7l-0.4-3.2l-1.8,1.1c0.1-1.2,0.7-2.2,1.8-2.8
		C151.1,145.3,151.1,144.5,151.1,144.5z"/>
	<path class="st8" d="M146.9,144.5l8.5-6l0.7,10.3l-8.5,6L146.9,144.5z M155.7,148.8l-0.7-9.6l-8.1,5.3l0.7,9.6L155.7,148.8z"/>
	<path class="st8" d="M152.5,143.1v0.7l0,0v-0.4C152.2,143.5,152.5,143.1,152.5,143.1z"/>
	<path class="st8" d="M153.2,143.1v0.7l0,0v-0.4C152.9,143.5,153.2,143.1,153.2,143.1z"/>
	<path class="st8" d="M151.8,143.1v0.7l0,0v-0.4C151.5,143.5,151.8,143.1,151.8,143.1z"/>
	<path class="st8" d="M153.2,142.1v0.7l0,0v-0.4C152.9,142.4,153.2,142.1,153.2,142.1z"/>
	<path class="st8" d="M152.5,142.1v0.7l0,0v-0.4C152.2,142.4,152.5,142.1,152.5,142.1z"/>
	<polygon class="st8" points="163.5,142.1 163.5,142.4 160,144.9 159.6,144.5 	"/>
	<polygon class="st8" points="161.7,135.7 162.4,137.1 162.1,137.5 162.4,142.1 162.1,142.4 161.7,137.8 161.4,137.8 	"/>
	<path class="st8" d="M156.4,137.8l8.5-6l0.7,10.3l-8.1,6L156.4,137.8z M165.6,142.1l-0.7-9.6l-8.1,5.3l0.7,9.6L165.6,142.1z"/>
	<polygon class="st8" points="160.3,137.1 161,138.2 160.7,138.5 161,143.1 160.3,143.5 160,138.9 159.6,139.2 	"/>
	<polygon class="st10" points="142.3,110.6 105.1,136.1 105.1,136.1 105.1,136.1 108.3,180.3 115.4,183.5 111.8,139.6 149.3,113.8 	
		"/>
	<path class="st11" d="M133.8,192.3L133.8,192.3l-3.5-43.9v-0.4l37.5-25.5h0.4v0.4l-37.2,25.5C130.9,148.4,133.8,192.3,133.8,192.3z
		"/>
	<polygon class="st10" points="154.3,131.8 154.3,131.8 154.3,131.8 114.3,112.7 107.9,116.9 147.9,136.4 151.5,180.3 157.8,175.7 	
		"/>
</g>
</svg>
