<?xml version="1.0" encoding="utf-8"?>
<!-- Generator: Adobe Illustrator 23.0.2, SVG Export Plug-In . SVG Version: 6.00 Build 0)  -->
<svg version="1.1" id="Layer_1" xmlns="http://www.w3.org/2000/svg" xmlns:xlink="http://www.w3.org/1999/xlink" x="0px" y="0px"
	 viewBox="0 0 300 300" style="enable-background:new 0 0 300 300;" xml:space="preserve">
<style type="text/css">
	.st0{fill:#C9905C;}
	.st1{fill:#EABC8C;}
	.st2{fill:#965D4A;}
	.st3{fill:#AF794A;}
	.st4{fill:#5DBA2F;}
	.st5{fill:#A67250;}
	.st6{fill:#BF8D5D;}
	.st7{fill:#252E3F;}
	.st8{fill:#1C6532;}
	.st9{fill:#5B83AC;}
	.st10{fill:#8E745E;}
	.st11{fill:#20272E;}
	.st12{fill:#FFFFFF;}
	.st13{fill:#69CDF0;}
	.st14{fill:#1FC3EC;}
	.st15{fill:#777777;}
	.st16{fill:#0792C5;}
	.st17{fill:#DC4C43;}
	.st18{fill:#F1D51B;}
	.st19{fill:#3CB987;}
	.st20{fill:#98989A;}
</style>
<title>why-save</title>
<g>
	<g>
		<polygon class="st0" points="48,152.7 68.7,140.6 49.1,131.1 29.5,140.6 		"/>
		<polygon class="st1" points="29.5,140.6 20.6,141.7 41,131.7 49.1,131.1 		"/>
		<polygon class="st1" points="49.1,131.1 58.6,131.1 77.3,140 68.7,140.6 		"/>
		<polygon class="st2" points="49.1,131.1 49.1,151.8 68.7,140.6 		"/>
		<polygon class="st3" points="49.1,131.1 44.5,150.4 48,152.7 49.1,151.8 		"/>
	</g>
	<g>
		<path class="st4" d="M43.6,157.3C39,98,60.6,83.6,70.1,80.1c11.8-4.3,25.3,0.3,32.8,10.9l-4,2.6c-6.3-8.9-17.6-12.7-27.3-9.2
			C54,90.8,45.4,117.8,48.2,157L43.6,157.3z"/>
		<g>
			<polygon class="st4" points="94.9,94 104.7,100 104.9,88.5 			"/>
		</g>
	</g>
	<g>
		<polygon class="st5" points="29.5,140.6 29.5,163.6 48,174.8 48,152.7 		"/>
		<polygon class="st0" points="68.7,140.6 48,152.7 48,174.8 68.7,163 		"/>
		<polygon class="st6" points="20.6,150.4 20.6,150.7 38.2,164.2 48,152.7 		"/>
		<polygon class="st1" points="29.5,140.6 20.6,150.4 38.2,163.3 47.7,152.4 		"/>
		<polygon class="st6" points="77.3,150.7 77.3,150.9 57.5,164.8 48,152.7 		"/>
		<polygon class="st1" points="68.7,140.6 77.3,150.7 57.7,163.9 48.2,152.4 		"/>
	</g>
	<g>
		<polygon class="st0" points="250.3,152.7 271,140.3 251.2,131.1 231.6,140.6 		"/>
		<polygon class="st1" points="231.6,140.6 222.7,141.7 243.1,131.7 251.2,131.1 		"/>
		<polygon class="st1" points="251.2,131.1 260.7,130.8 279.4,139.7 271,140.3 		"/>
		<polygon class="st2" points="251.2,131.1 251.5,151.8 271,140.3 		"/>
		<polygon class="st3" points="251.2,131.1 246.9,150.4 250.3,152.7 251.5,151.8 		"/>
	</g>
	<g>
		<g>
			<g>
				<polygon class="st0" points="147.6,167.1 198.5,138.3 150.7,115 102.4,137.7 				"/>
				<polygon class="st1" points="102.4,137.7 80.8,139.4 130.6,115.5 150.7,115 				"/>
				<polygon class="st1" points="150.7,115 173.5,115 219.5,137.1 198.5,138.3 				"/>
				<polygon class="st2" points="150.7,115 150.4,165.3 198.5,138.3 				"/>
				<polygon class="st3" points="150.7,115 139.5,161.6 147.6,167.1 150.4,165.3 				"/>
			</g>
			<g>
				<polygon class="st7" points="140.1,87.9 147.6,84.7 157.1,87.9 167.1,188.1 148.7,189.8 147,167.9 145.3,189.5 126.3,187.8 				
					"/>
				<path class="st8" d="M115.6,113c1.7-5.2,3.5-10.4,5.8-15.5c0,0-1.4-3.7,15.3-6.9l6-1.4l-0.3,42l-9.2,65.9l-15.8-2.9
					c0,0-1.2-0.6-0.9-2.6c0.3-2,8.6-52.4,8.6-52.4l-0.9-20.7l-4,20.2l12.4,16.7c0,0.3-4,0.3-4,0.6v0.3c-0.3,1.7-2.9,2-3.5,0.6
					l-15.3-16.1c-0.6-0.9-0.9-2-0.6-2.9C110.7,129.1,113,121,115.6,113z"/>
				<path class="st8" d="M178.6,113.2c-1.7-5.5-3.5-10.7-5.5-15.8c0,0,1.4-3.7-15.3-7.2l-6-1.4v42.3l8.1,65.9l15.8-2.9
					c0,0,1.2-0.6,0.9-2.3c-0.3-2-7.8-52.4-7.8-52.4l1.4-20.7l3.5,20.4l-8.3,16.7c0,0.3-0.3,0.6,0,0.6v0.3c0.3,1.7,2.9,2,3.5,0.6
					l15.5-15.8c0.6-0.9,0.9-2,0.6-2.9C183.2,129.6,181.2,121.6,178.6,113.2z"/>
				<path class="st9" d="M166,89.6c-2.3-2.9-5.2-5.8-8.6-7.8c-2.6-1.7-5.8-2.9-9.2-2.9c-2,0-3.7,0.3-5.8,0.9
					c-2.9,0.9-5.5,2.6-7.5,4.3c-2,1.7-4,3.5-5.5,5.5c-0.3,0.6-0.3,0.9,0.6,1.2l11.5,2.3l1.7,3.7l-9.2,0.9c-0.6,0-0.9,0.6-0.6,0.9
					l9.8,30.8l1.2-37.7c0-1.7,1.7-2.9,3.5-2.9h0.3c2,0.3,3.5,1.4,3.5,2.9l0.6,37.7l10.1-30.8c0.3-0.3-0.3-0.9-0.6-0.9l-9.5-1.2
					l1.7-4l11.8-2.3C166,90.5,166.3,89.9,166,89.6z"/>
				<ellipse class="st10" cx="132" cy="115.3" rx="2" ry="2"/>
				<ellipse class="st10" cx="134" cy="128.2" rx="2" ry="2"/>
				<ellipse class="st10" cx="134" cy="141.7" rx="2" ry="2"/>
				<ellipse class="st10" cx="130.3" cy="154.7" rx="2" ry="2"/>
				<polygon class="st11" points="140.1,100 136,100.6 135.8,100.3 140.1,99.4 				"/>
				<ellipse class="st10" cx="162.5" cy="115.5" rx="2" ry="2"/>
				<ellipse class="st10" cx="160.5" cy="128.8" rx="2" ry="2"/>
				<ellipse class="st10" cx="160.5" cy="141.7" rx="2" ry="2"/>
				<ellipse class="st10" cx="164" cy="155" rx="2" ry="2"/>
				<polygon class="st11" points="154.7,100 158.8,100.9 159.1,100.3 154.7,99.7 				"/>
			</g>
			<g>
				<path class="st12" d="M148.4,184.3l-23.6,3.2c-2.3,0.3-4.6-1.4-4.9-3.7l-5.8-44.3c-0.3-2.3,1.4-4.6,3.7-4.9l23.6-3.2
					c2.3-0.3,4.6,1.4,4.9,3.7l5.8,44.3C152.7,182,151,184.1,148.4,184.3z"/>
				
					<rect x="119.3" y="135.4" transform="matrix(0.9916 -0.1297 0.1297 0.9916 -19.4041 18.6266)" class="st13" width="27.9" height="45.8"/>
				<polygon class="st14" points="144.7,138.9 122.2,182.9 150.1,179.4 				"/>
			</g>
			<g>
				<path class="st12" d="M175.2,167.9c-0.6,0.6-0.9,0.9-1.7,1.4c-2.6,1.2-5.8-0.3-8.1-2c-4.9-3.5-8.6-8.3-12.4-13.2
					c-0.3-0.6-0.9-0.9-0.9-1.7c-0.3-0.6-0.3-1.4-0.3-2c0.3-2,0.6-4,1.2-5.8c0.3-0.6,0.3-0.9,0.9-1.4c0.3-0.3,0.9-0.3,1.2-0.6
					c1.4-0.3,2.6-0.6,3.7-0.9c0.6-0.3,1.4-0.3,2-0.6c0.6-0.6,1.2-1.2,1.4-1.7c0.9-1.7,1.7-3.2,2.6-4.6c0.3-0.3,0.3-0.6,0.6-1.2
					c0-0.6-0.3-0.9-0.3-1.4c-0.6-1.4-0.9-2.6-1.4-3.5c-0.3-0.6-0.3-1.4-0.3-2c0.3-0.6,0.6-1.4,1.2-1.7c1.4-1.4,2.6-2.6,4-3.5
					c0.9-0.6,1.7-0.9,2.6-0.9c0.9-0.3,2,0.3,2.9,0.3c4.6,0.6,9.5,1.7,14.1,3.2c0.6,0.3,1.4,0.6,2,0.9c2.6,1.4,5.2,2.9,5.5,5.8
					c0.3,1.4-0.3,2.6-1.4,3.5c-0.6,0.3-1.4,0.6-1.7,0.6c-2,0.3-4,0.9-6,1.7c-0.9,0.3-2,0.9-2.9,1.4c-0.9,0.9-1.7,2-2.3,2.9
					c-2,3.2-4,6.6-5.8,10.1c-0.9,1.4-1.7,2.6-1.7,4.3c0,1.7,0.3,3.2,0.6,4.6c0.6,1.7,0.9,3.2,1.4,5.2c0.3,0.6,0.3,1.4,0.3,1.7
					C175.5,167.4,175.2,167.6,175.2,167.9z"/>
				<ellipse class="st15" cx="159.4" cy="150.1" rx="2.6" ry="2.6"/>
				<ellipse class="st15" cx="175.2" cy="137.7" rx="2.6" ry="2.6"/>
				<ellipse class="st12" cx="164" cy="142.3" rx="0.9" ry="0.9"/>
				<ellipse class="st12" cx="167.4" cy="136.3" rx="0.9" ry="0.9"/>
				<ellipse class="st16" cx="170.3" cy="131.7" rx="1.4" ry="1.4"/>
				<ellipse class="st17" cx="173.5" cy="125.6" rx="1.4" ry="1.4"/>
				<ellipse class="st18" cx="168.9" cy="126.8" rx="1.4" ry="1.4"/>
				<ellipse class="st19" cx="174.9" cy="130.2" rx="1.4" ry="1.4"/>
				<path class="st20" d="M169.7,145.5l-0.9,1.7l-1.7-0.9c-0.3-0.3-0.6,0-0.6,0.3l-0.6,1.4c-0.3,0.3,0,0.6,0.3,0.6l1.7,0.9l-1.2,1.7
					c-0.3,0.3,0,0.6,0.3,0.6l1.4,0.6c0.3,0.3,0.6,0,0.6-0.3l0.9-1.7l1.7,0.9c0.3,0.3,0.6,0,0.6-0.3l0.6-1.4c0.3-0.3,0-0.6-0.3-0.6
					l-1.7-0.6l0.9-1.7c0.3-0.3,0-0.6-0.3-0.6l-1.2-0.6C170.3,145.2,170,145.2,169.7,145.5z"/>
			</g>
			<g>
				<polygon class="st5" points="102.4,137.7 102.1,193.8 147.3,221.5 147.6,167.1 				"/>
				<polygon class="st0" points="198.5,138.3 147.6,167.1 147.3,221.5 198.2,192.7 				"/>
				<polygon class="st6" points="80.5,160.7 80.5,161.9 123.1,195.3 147.6,167.1 				"/>
				<polygon class="st1" points="102.4,137.7 80.5,160.7 123.1,193.3 147,166.2 				"/>
				<polygon class="st6" points="219.2,163 219.2,163.9 170.3,196.7 147.6,167.1 				"/>
				<polygon class="st1" points="198.5,138.3 219.2,163 170.6,195 148.4,166.5 				"/>
			</g>
		</g>
		<circle class="st15" cx="129.7" cy="134.5" r="0.6"/>
	</g>
	<g>
		<path class="st4" d="M254.1,157.3l-4.6-0.3c2.9-38.9-5.8-65.9-23.3-72.5c-9.8-3.5-20.7,0.3-27.3,9.2l-4-2.6
			c7.5-10.7,21-15,32.8-10.9C237.1,83.9,259,98.3,254.1,157.3z"/>
		<g>
			<polygon class="st4" points="192.7,88.5 193,100 202.8,94 			"/>
		</g>
	</g>
	<g>
		<polygon class="st5" points="231.6,140.6 231.6,163.6 250.3,174.8 250.3,152.7 		"/>
		<polygon class="st0" points="271,140.3 250.3,152.7 250.3,174.8 271.3,162.8 		"/>
		<polygon class="st6" points="222.7,150.4 222.7,150.7 240.5,164.2 250.3,152.7 		"/>
		<polygon class="st1" points="231.6,140.6 222.7,150.4 240.2,163.3 250,152.4 		"/>
		<polygon class="st6" points="279.4,150.4 279.4,150.7 259.5,164.8 250.3,152.7 		"/>
		<polygon class="st1" points="271,140.3 279.4,150.4 259.8,163.6 250.6,152.4 		"/>
	</g>
</g>
</svg>
