<?xml version="1.0" encoding="utf-8"?>
<!-- Generator: Adobe Illustrator 23.0.2, SVG Export Plug-In . SVG Version: 6.00 Build 0)  -->
<svg version="1.1" id="Layer_1" xmlns="http://www.w3.org/2000/svg" xmlns:xlink="http://www.w3.org/1999/xlink" x="0px" y="0px"
	 viewBox="0 0 300 300" style="enable-background:new 0 0 300 300;" xml:space="preserve">
<style type="text/css">
	.st0{fill:#C9C9C9;}
	.st1{fill:#4B5861;}
	.st2{fill:#D6D7D9;}
	.st3{fill:#FFFFFF;}
	.st4{fill:#B9B9BB;}
	.st5{fill:#0B1627;}
	.st6{fill:#5DBA2F;}
	.st7{fill:#C0BCBD;}
	.st8{fill:#E9E5E6;}
	.st9{fill:#767878;}
</style>
<title>why-save</title>
<g>
	<path class="st0" d="M178.4,232.4H196c0,0,25.2-12.4,33.1-50l11.7-4.1c0,0-3.4,44-41.7,65h-22.6L178.4,232.4z"/>
	<path class="st1" d="M148.3,100.8L148.3,100.8c0.8,0.1,1.4,0.7,1.5,1.5v4.9c-0.1,0.8-0.7,1.4-1.5,1.5l0,0c-0.8-0.1-1.4-0.7-1.5-1.5
		v-4.9c-0.1-0.8,0.5-1.4,1.3-1.5C148.1,100.8,148.2,100.8,148.3,100.8z"/>
	<path class="st1" d="M148.3,100.8L148.3,100.8c0.8,0.1,1.4,0.7,1.5,1.5v4.9c-0.1,0.8-0.7,1.4-1.5,1.5l0,0c-0.8-0.1-1.4-0.7-1.5-1.5
		v-4.9c-0.1-0.8,0.5-1.4,1.3-1.5C148.1,100.8,148.2,100.8,148.3,100.8z"/>
	<path class="st1" d="M147.9,171.9L147.9,171.9c0.8,0.1,1.4,0.7,1.5,1.5v4.9c-0.1,0.8-0.7,1.4-1.5,1.5l0,0c-0.8-0.1-1.4-0.7-1.5-1.5
		v-4.9C146.8,172.6,147.2,171.9,147.9,171.9z"/>
	<circle class="st1" cx="149.8" cy="140.7" r="48.5"/>
	<path class="st2" d="M114.8,142.9c0-20.8,16.8-37.6,37.6-37.6c8.5,0.1,16.7,3,23.3,8.3c-15.1-14.4-38.9-13.9-53.4,1.1
		c-14.4,15.1-13.9,38.9,1.1,53.4c1.1,0.8,1.9,1.9,3,2.6C119.1,163.4,114.9,153.4,114.8,142.9z"/>
	<path class="st3" d="M187.8,140.7c0.1-10.4-4.2-20.3-11.7-27.4c-15.8-13.6-39.6-11.8-53.2,3.9s-11.8,39.6,3.9,53.2l0,0
		c16.3,12.9,39.9,10.1,52.8-6.1c0.1-0.1,0.1-0.2,0.2-0.3C184.9,157.2,187.6,149.1,187.8,140.7z"/>
	<path class="st4" d="M151.3,114.8L151.3,114.8c0.8,0.1,1.4,0.7,1.5,1.5v25.9c-0.1,0.8-0.7,1.4-1.5,1.5l0,0
		c-0.8-0.1-1.4-0.7-1.5-1.5v-25.9C149.9,115.5,150.5,114.8,151.3,114.8z"/>
	<path class="st4" d="M147.5,142.2l3,3l0,0l-13.9,13.9c-0.9,0.7-2.1,0.7-3,0l0,0c-0.7-0.9-0.7-2.1,0-3L147.5,142.2z"/>
	<path class="st4" d="M152.1,140.3h28.2c0.8,0.1,1.4,0.7,1.5,1.5l0,0c-0.1,0.8-0.7,1.4-1.5,1.5h-28.2V140.3z"/>
	<path class="st1" d="M150.2,101.2L150.2,101.2c0.8,0.1,1.4,0.7,1.5,1.5v4.9c-0.1,0.8-0.7,1.4-1.5,1.5l0,0c-0.8-0.1-1.4-0.7-1.5-1.5
		v-4.9C148.7,101.9,149.4,101.3,150.2,101.2z"/>
	<path class="st1" d="M149.8,172.6L149.8,172.6c0.8,0.1,1.4,0.7,1.5,1.5v4.9c-0.1,0.8-0.7,1.4-1.5,1.5l0,0c-0.8-0.1-1.4-0.7-1.5-1.5
		v-4.9c-0.1-0.8,0.5-1.4,1.3-1.5C149.6,172.6,149.7,172.6,149.8,172.6z"/>
	<path class="st1" d="M189.3,140.7L189.3,140.7c-0.1,0.8-0.7,1.4-1.5,1.5h-4.5c-0.8-0.1-1.4-0.7-1.5-1.5l0,0
		c0.1-0.8,0.7-1.4,1.5-1.5h4.9C188.9,139.2,189.3,139.9,189.3,140.7z"/>
	<path class="st1" d="M118.2,140.3L118.2,140.3c-0.1,0.8-0.7,1.4-1.5,1.5h-4.9c-0.8-0.1-1.4-0.7-1.5-1.5l0,0
		c0.1-0.8,0.7-1.4,1.5-1.5h4.9C117.5,139.2,118.2,139.6,118.2,140.3z"/>
	<path class="st5" d="M150.2,113.6L150.2,113.6c0.8,0.1,1.4,0.7,1.5,1.5v25.9c-0.1,0.8-0.7,1.4-1.5,1.5l0,0
		c-0.8-0.1-1.4-0.7-1.5-1.5v-25.9C148.7,114.3,149.4,113.7,150.2,113.6z"/>
	<path class="st5" d="M146.4,141.4l3,2.6l0,0L135.5,158c-0.9,0.7-2.1,0.7-3,0l0,0c-0.7-0.9-0.7-2.1,0-3
		C132.5,155,146.4,141.4,146.4,141.4z"/>
	<path class="st6" d="M150.9,139.2h28.2c0.8,0.1,1.4,0.7,1.5,1.5l0,0c-0.1,0.8-0.7,1.4-1.5,1.5h-28.2
		C150.9,142.2,150.9,139.2,150.9,139.2z"/>
	<circle class="st7" cx="150.9" cy="141.8" r="6.4"/>
	<circle class="st8" cx="149.8" cy="140.7" r="6.4"/>
	<circle class="st6" cx="149.8" cy="140.7" r="3.8"/>
	<path class="st9" d="M256.2,136.2c-2-9.8-8-18.4-16.5-23.7C227,63,176.7,33.1,127.2,45.7c-32.8,8.4-58.5,34-66.8,66.8
		c-8.6,5.2-14.7,13.8-16.5,23.7c-1.8,9-1.2,18.4,1.9,27.1c2.6,7.3,7.6,13.4,14.3,17.3c2.9,1.6,6.1,2.6,9.4,3l1.5,0.4
		c3.2,0.8,6.6,0.7,9.8-0.4c2.5-1.5,4.2-4,4.9-6.8c0.6-5,0.5-10.1-0.4-15c0-1.1-0.4-2.3-0.4-3.4c-0.6-8.6-0.5-17.3,0.4-25.9
		c0-0.8,0.4-1.9,0.4-2.6c1.1-5,0.8-10.2-0.8-15c-0.5-1.6-1.4-3-2.6-4.1c-1-0.8-2.2-1.2-3.4-1.1c14.1-39.4,57.5-59.9,97-45.8
		c21.1,7.6,37.7,24,45.5,45c-1.1,0.1-2.1,0.5-3,1.1c-1.2,1.1-2.1,2.6-2.6,4.1c-1.6,4.9-1.8,10-0.8,15c0,0.8,0.4,1.9,0.4,2.6
		c0.9,8.6,1,17.3,0.4,25.9c0,1.1-0.4,2.3-0.4,3.4c-0.9,5-1,10-0.4,15c0.3,3,2.2,5.5,4.9,6.8c3.1,1.3,6.6,1.4,9.8,0.4l1.5-0.4
		c3.3-0.4,6.5-1.4,9.4-3c6.7-3.9,11.7-10,14.3-17.3C257.4,154,258,144.9,256.2,136.2z"/>
	<ellipse class="st9" cx="156.2" cy="236.5" rx="25.2" ry="20.7"/>
</g>
</svg>
