<?xml version="1.0" encoding="utf-8"?>
<!-- Generator: Adobe Illustrator 23.0.2, SVG Export Plug-In . SVG Version: 6.00 Build 0)  -->
<svg version="1.1" id="Layer_1" xmlns="http://www.w3.org/2000/svg" xmlns:xlink="http://www.w3.org/1999/xlink" x="0px" y="0px"
	 viewBox="0 0 300 300" style="enable-background:new 0 0 300 300;" xml:space="preserve">
<style type="text/css">
	.st0{fill:#73787B;}
	.st1{fill:#4C5861;}
	.st2{fill:#5DBA2F;}
	.st3{fill:#C1BDC4;}
	.st4{fill:#EADBCD;}
	.st5{fill:#37383A;}
	.st6{fill:#6E6F72;}
	.st7{fill:#BDBEC0;}
	.st8{fill:#F0CFA9;}
	.st9{fill:#D4A67E;}
	.st10{opacity:0.5;fill:#B68B6A;enable-background:new    ;}
</style>
<title>why-save</title>
<g id="Layer_1-2">
	<rect x="97.2" y="63.9" class="st0" width="16.4" height="155.4"/>
	<rect x="88" y="164.9" class="st0" width="9.2" height="54.4"/>
	<rect x="92.6" y="164.9" class="st1" width="4.6" height="54.4"/>
	<polygon class="st2" points="88,219.3 26.7,217.4 25.7,216.1 25.7,212.5 88,212.5 	"/>
	<rect x="102.1" y="68.9" class="st1" width="6.2" height="145.2"/>
	<rect x="113.6" y="78" class="st0" width="8.5" height="20.3"/>
	<rect x="114.9" y="98.4" class="st3" width="6.2" height="1.3"/>
	<rect x="116.2" y="99.3" class="st0" width="3.6" height="119.7"/>
	<rect x="111" y="116.1" class="st0" width="12.8" height="3"/>
	<rect x="113.6" y="74.4" class="st1" width="10.2" height="3.6"/>
	<path class="st0" d="M214.3,108.5l-1.6-9.5l-6.6-6.6h-41.6l-14.8,9.8L128,162v16.4h6.9l13.1,8.5h28.8l42.3-29.5v-12.8L214.3,108.5z
		 M213.3,154.1L174.9,181h-25.2l-13.1-8.5h-2.6v-9.5l20.3-56.4l0,0L167,98h36.7l3.6,3.6l5.9,42.9V154.1z"/>
	<polygon class="st0" points="117.9,222.3 241.5,222.3 250.6,222.3 267.4,215.4 267.4,186.9 136.6,186.9 122.5,181.3 112.6,181.3 
		112.6,198.4 	"/>
	<path class="st2" d="M265.7,160l-1.6-1.6h-41.3l-42.3,29.5l-3.3,2.3h-30.8l-3.6-2.3l-10.5-6.6h-7.5v4.3c14.9,0,27.2,11.9,27.5,26.9
		v4.6h66.6v-2.6c1.4-12.3,11.6-21.7,23.9-22.3c10.3,0.2,19.6,6.5,23.6,16.1c0,0.3,0.3,0.7,0.3,1c0,0.3,0.3,1.3,0.7,2l0,0
		c0.3,1.1,0.4,2.2,0.3,3.3l4.9-2.3l1.6-0.7v-42.6L265.7,160z"/>
	<path class="st4" d="M265.7,160c-1.7,1-3.4,1.9-5.2,2.6c-4.6,2-10.5,4.3-16.4,6.6c-6.6,2.6-13.4,5.6-20,8.9
		c-5.1,2.5-9.9,5.7-14.1,9.5c-7.7,5.9-12.2,14.9-12.5,24.6h-45.2v4.6h66.6v-1.3c1-13.6,12.8-23.8,26.4-22.9
		c9.8,0.7,18.2,7.1,21.5,16.3c0.3,0.7,0.3,1.3,0.7,2l0,0c0.3,1.1,0.4,2.2,0.3,3.3l4.9-2.3l1.6-0.7v-42.3L265.7,160z"/>
	<path class="st1" d="M274.3,192.5v19.3l-1.6,0.7l-4.9,2.3l-0.3,0.3l-1,0.7c-0.9-12.8-12.1-22.5-24.9-21.5
		c-12,0.9-21.4,10.8-21.6,22.9v0.3h-3.6c0.2-14.2,11.7-25.7,25.9-25.9h25.2C269.7,191.4,272,191.8,274.3,192.5z"/>
	<path class="st5" d="M148.4,212.1c0,13-10.6,23.6-23.6,23.6s-23.6-10.6-23.6-23.6c0-13,10.6-23.6,23.6-23.6l0,0
		c12.9-0.2,23.4,10.1,23.6,23C148.4,211.7,148.4,211.9,148.4,212.1z"/>
	<polygon class="st1" points="149,211.1 148.7,207.9 140.8,208.5 148.4,206.2 147.4,202.9 139.8,205.2 146.7,201.3 144.8,198.4 
		137.9,202.3 143.8,197 141.5,194.4 135.6,200 140.5,193.4 137.5,191.5 133,197.7 136.2,190.5 133,189.2 129.7,196.4 131.6,188.5 
		128,187.9 126.4,195.7 126.4,187.9 123.1,187.9 123.1,195.7 121.5,187.9 118.2,188.5 119.8,196.4 116.6,189.2 113.3,190.5 
		116.6,197.7 112,191.5 109.3,193.4 113.9,199.7 108,194.4 105.7,197 111.6,202.3 104.8,198.4 103.1,201.3 110,205.2 102.5,202.9 
		101.2,206.2 108.7,208.5 100.8,207.9 100.5,211.1 108.4,212.1 100.5,212.8 100.8,216.1 108.7,215.4 101.2,217.7 102.5,221 
		110,218.7 103.1,222.6 104.8,225.6 111.6,221.6 105.7,226.9 108,229.5 113.9,224.3 109.3,230.5 112,232.5 116.6,226.2 113.3,233.4 
		116.6,234.7 119.8,227.5 118.2,235.4 121.5,236.1 123.1,228.2 123.1,236.1 126.4,236.1 126.4,228.2 128,236.1 131.6,235.4 
		129.7,227.5 133,234.7 136.2,233.4 133,226.2 137.5,232.5 140.5,230.5 135.9,224.3 141.5,229.5 143.8,226.9 137.9,221.6 
		144.8,225.6 146.7,222.6 139.8,218.7 147.4,221 148.4,217.7 140.8,215.4 148.7,216.1 149,212.8 141.1,212.1 	"/>
	<path class="st6" d="M140.2,212.1c0,8.5-6.9,15.4-15.3,15.4c0,0,0,0-0.1,0l0,0c-8.5,0-15.4-6.9-15.4-15.3c0,0,0,0,0-0.1l0,0
		c0-8.5,6.9-15.4,15.3-15.4c0,0,0,0,0.1,0l0,0c8.3-0.2,15.2,6.3,15.4,14.5C140.2,211.5,140.2,211.8,140.2,212.1z"/>
	<path class="st1" d="M137.5,212.1c0,7.1-5.7,12.8-12.8,12.8c0,0,0,0,0,0c-7-0.2-12.6-5.8-12.8-12.8c0-7.1,5.7-12.8,12.8-12.8
		c0,0,0,0,0,0l0,0c6.8-0.2,12.6,5.1,12.8,12C137.6,211.6,137.6,211.9,137.5,212.1z"/>
	<path class="st7" d="M125.7,203.3c0,0.5-0.4,1-1,1s-1-0.4-1-1c0-0.5,0.4-1,1-1C125.4,202,125.7,202.6,125.7,203.3z M124.8,219.7
		c-0.5,0-1,0.5-1,1c0.1,0.5,0.5,0.8,1,1l0,0c0.5,0,1-0.4,1-1C125.7,220.1,125.3,219.7,124.8,219.7z M119.8,203.3
		c-0.7,0.3-0.7,1-0.3,1.6c0.3,0.7,1,0.7,1.6,0.3c0.7-0.3,0.7-1,0.3-1.6C121,203.3,120.4,203.2,119.8,203.3z M128.7,218.7
		c-0.7,0.3-0.7,1-0.3,1.6c0.3,0.7,1,0.7,1.6,0.3c0.7-0.3,0.7-1,0.3-1.6C130,218.4,129,218.4,128.7,218.7z M116.2,206.9
		c-0.4,0.5-0.2,1.3,0.3,1.6c0.5,0.4,1.3,0.2,1.6-0.3c0.4-0.5,0.2-1.3-0.3-1.6l0,0C117.3,206.3,116.7,206.4,116.2,206.9z
		 M131.3,215.7c-0.3,0.6-0.1,1.2,0.3,1.6l0,0c0.6,0.3,1.2,0.1,1.6-0.3c0.3-0.3,0-1.3-0.3-1.6C132.4,215.2,131.7,215.3,131.3,215.7z
		 M114.9,212.1c0,0.5,0.4,1,1,1c0.5,0,1-0.4,1-1c0,0,0,0,0,0c-0.1-0.5-0.5-0.8-1-1C115.6,210.8,114.9,211.5,114.9,212.1z
		 M132.3,212.1c0,0.5,0.5,1,1,1c0.5,0,1-0.4,1-1c0-0.5-0.4-1-1-1C133,210.8,132.3,211.5,132.3,212.1z M116.2,217
		c0.3,0.7,1,0.7,1.6,0.3c0.7-0.3,0.7-1,0.3-1.6c-0.3-0.7-1-0.7-1.6-0.3C116.1,215.8,116,216.5,116.2,217z M131.3,208.2
		c0.3,0.7,1,0.7,1.6,0.3l0,0c0.7-0.3,0.7-1,0.3-1.6c-0.3-0.7-1-0.7-1.6-0.3l0,0C131.2,207,131.1,207.6,131.3,208.2z M119.8,220.6
		c0.6,0.3,1.2,0.1,1.6-0.3l0,0c0.3-0.7,0.3-1.3-0.3-1.6c-0.7-0.3-1.3-0.3-1.6,0.3l0,0C119.2,219.7,119.2,220.3,119.8,220.6z
		 M128.7,205.2c0.5,0.4,1.3,0.2,1.6-0.3c0.4-0.5,0.2-1.3-0.3-1.6c-0.5-0.4-1.3-0.2-1.6,0.3C128,204.3,128,204.9,128.7,205.2z"/>
	<path class="st7" d="M130,212.1c0,2.9-2.3,5.2-5.2,5.2c-2.9,0-5.2-2.3-5.2-5.2c0-2.9,2.3-5.2,5.2-5.2h0l0,0c2.7-0.1,5.1,2,5.2,4.7
		C130,211.8,130,211.9,130,212.1z"/>
	<path class="st5" d="M262.4,216.1c0,10.9-8.8,19.7-19.7,19.7c-10.9,0-19.7-8.8-19.7-19.7c0-10.9,8.8-19.7,19.7-19.7
		C253.6,196.4,262.4,205.2,262.4,216.1z"/>
	<polygon class="st1" points="262.8,215.4 262.4,212.8 256.2,213.4 262.4,211.1 261.5,208.5 255.2,210.5 260.8,207.2 259.5,204.9 
		253.9,208.2 258.5,203.6 256.9,201.6 252,206.2 255.9,200.7 253.6,199 249.7,204.3 252.3,198.4 249.7,197.4 247,203.3 248.4,196.7 
		245.7,196.1 244.1,202.6 244.1,196.1 241.5,196.1 241.5,202.6 240.2,196.1 237.2,196.7 238.5,203.3 235.9,197.4 233.3,198.4 
		235.9,204.3 232.3,199 230,200.7 233.6,205.9 229,201.6 227,203.6 232,208.2 226.1,204.9 224.7,207.2 230.3,210.5 224.1,208.5 
		223.4,211.1 229.7,213.4 223.1,212.8 222.8,215.4 229.3,216.1 222.8,216.7 223.1,219.7 229.7,219 223.4,221 224.1,223.6 
		230.3,221.6 224.7,224.9 226.1,227.2 232,223.9 227,228.5 229,230.5 233.9,226.2 230,231.5 232.3,233.1 235.9,227.9 233.3,233.8 
		235.9,235.1 238.5,228.8 237.2,235.4 240.2,236.1 241.5,229.5 241.5,236.1 244.1,236.1 244.1,229.5 245.7,236.1 248.4,235.4 
		247,228.8 249.7,235.1 252.3,233.8 249.7,227.9 253.6,233.1 255.9,231.5 252,226.2 256.9,230.5 258.5,228.5 253.9,223.9 
		259.5,227.2 260.8,224.9 255.2,221.6 261.5,223.6 262.4,221 256.2,219 262.4,219.7 262.8,216.7 256.2,216.1 	"/>
	<path class="st6" d="M255.6,216.1c0,7.1-5.7,12.8-12.8,12.8l0,0l0,0c-7.1,0-12.8-5.7-12.8-12.8l0,0l0,0c0-7.1,5.7-12.8,12.8-12.8
		l0,0c7-0.1,12.7,5.4,12.8,12.4C255.6,215.8,255.6,215.9,255.6,216.1z"/>
	<path class="st1" d="M253.6,216.1c0,6-4.8,10.8-10.8,10.8c-6,0-10.8-4.8-10.8-10.8c0-6,4.8-10.8,10.8-10.8l0,0l0,0
		C248.7,205.4,253.4,210.2,253.6,216.1z"/>
	<path class="st7" d="M243.8,208.8c0,0.5-0.4,1-1,1s-1-0.4-1-1c0-0.5,0.4-1,1-1c0.5-0.1,0.9,0.3,1,0.8
		C243.8,208.7,243.8,208.8,243.8,208.8z M242.8,222.3c-0.5,0-1,0.4-1,1s0.4,1,1,1c0.5,0,1-0.4,1-1
		C243.7,222.7,243.3,222.3,242.8,222.3z M238.8,209.2c-0.3,0.3-0.7,0.7-0.3,1.3c0.3,0.7,1,0.7,1.3,0.3c0.3-0.3,0.7-1,0.3-1.3
		c-0.2-0.4-0.6-0.6-1.1-0.5C239,209.1,238.9,209.1,238.8,209.2z M246.1,221.6c-0.3,0.3-0.7,0.7-0.3,1.3c0.3,0.7,0.7,0.7,1.3,0.3
		c0.7-0.3,0.7-0.7,0.3-1.3l0,0C247,221.6,246.4,221.3,246.1,221.6z M235.9,212.1c-0.3,0.3,0,1,0.3,1.3s1,0,1.3-0.3s0-1-0.3-1.3
		S235.9,211.5,235.9,212.1z M248.4,219.3c-0.3,0.3,0,1,0.3,1.3s1,0,1.3-0.3c0.3-0.3,0-1-0.3-1.3S248.7,218.7,248.4,219.3z
		 M234.6,216.1c0,0.5,0.4,1,1,1c0.5,0,1-0.4,1-1c0-0.5-0.4-1-1-1l0,0C235,215.1,234.6,215.5,234.6,216.1z M249,216.1
		c-0.1,0.5,0.3,0.9,0.8,1c0.1,0,0.1,0,0.2,0l0,0c0.5,0,1-0.4,1-1c0-0.5-0.4-1-1-1C249.5,215.2,249.2,215.6,249,216.1z M235.6,220.3
		c0.3,0.3,0.7,0.7,1.3,0.3s0.7-0.7,0.3-1.3l0,0c-0.3-0.3-1-0.7-1.3-0.3S235.6,219.7,235.6,220.3z M248.4,213.1
		c0.3,0.3,1,0.7,1.3,0.3s0.7-0.7,0.3-1.3l0,0c-0.3-0.3-0.7-0.7-1.3-0.3l0,0C248.4,211.8,248,212.5,248.4,213.1z M238.8,223.3
		c0.3,0.3,1,0,1.3-0.3s0-1-0.3-1.3s-1,0-1.3,0.3c-0.3,0.3-0.3,0.9,0.1,1.2C238.7,223.2,238.7,223.2,238.8,223.3z M246.1,210.5
		c0.3,0.3,1,0,1.3-0.3s0-1-0.3-1.3c-0.3-0.3-1,0-1.3,0.3C245.4,209.5,245.4,210.5,246.1,210.5z"/>
	<path class="st7" d="M247.4,216.1c0,2.5-2.1,4.6-4.6,4.6c-2.5,0-4.6-2.1-4.6-4.6c0-2.5,2.1-4.6,4.6-4.6c0,0,0,0,0,0
		C245.2,211.6,247.2,213.6,247.4,216.1z"/>
	<polygon class="st0" points="139.5,141 145.4,141 155.2,153.1 155.2,160 142.5,180 130.3,178 129,163.3 	"/>
	<polygon class="st0" points="205.7,162.3 179.5,164.6 168.4,173.1 168.4,183.9 175.9,183.9 	"/>
	<path class="st1" d="M215.6,96.1L215.6,96.1l-7.2-7.2h-44.6L148,99.3l-23.3,64.3V181h7.2l14.1,9.2h31.1l45.6-31.8l2.6-5.9
		L215.6,96.1z M216.6,152.1l-41.6,31.5h-27.2l-14.1-9.2h-3v-9.8l21.6-60.3l0,0l13.4-9.2h39.3L209,99l6.6,46.2L216.6,152.1z"/>
	<polygon class="st0" points="197.5,126.2 203.1,126.2 201.1,162 198.5,165.2 175.2,167.2 172,165.6 172,162 191.3,156.4 
		194.6,144.9 192.9,134.4 193.6,128.5 	"/>
	<polygon class="st0" points="154.3,169.2 150.3,165.2 152.3,163.3 154.3,165.2 157.9,161.3 157.9,155.1 160.8,155.1 160.8,162.6 	
		"/>
	<path class="st0" d="M160.8,155.1c0,0.7-0.6,1.3-1.3,1.3s-1.3-0.6-1.3-1.3c0-0.7,0.6-1.3,1.3-1.3
		C160.2,153.4,160.8,154.1,160.8,155.1z"/>
	<path class="st0" d="M159.2,147.9c0.6,0.6,0.7,1.6,0.1,2.2c0,0,0,0-0.1,0.1l0,0c-0.6,0.6-1.6,0.7-2.2,0.1c0,0,0,0-0.1-0.1l0,0
		l-10.8-10.8c-0.6-0.6-0.7-1.6-0.1-2.2c0,0,0,0,0.1-0.1l0,0c0.6-0.6,1.6-0.7,2.2-0.1c0,0,0,0,0.1,0.1l0,0L159.2,147.9z"/>
	<path class="st0" d="M155.6,140.7c1,1.1,1,2.8,0,3.9l-5.2,5.2c-1.1,1-2.8,1-3.9,0l0,0c-1-1.1-1-2.8,0-3.9l0,0l5.2-5.2
		C152.8,139.7,154.4,139.7,155.6,140.7z"/>
	<path class="st1" d="M147.7,129.2h-0.3l-3.9-1.3c-0.8-0.3-1.2-1.2-1-2c0.1-0.7,0.9-1.2,1.6-1.1c0.1,0,0.2,0.1,0.4,0.1l0,0l2.6,1
		l3.3-9.2l-2.6-1c-0.8-0.3-1.3-1.2-1-2c0.3-0.8,1.2-1.3,2-1l0,0l3.9,1.3c0.7,0.4,1.1,1.2,1,2l-4.6,12.5c0,0.3-0.3,0.6-0.7,0.7H147.7
		z"/>
	<path class="st1" d="M149.3,99.3c0,3.1-2.4,5.6-5.5,5.6c0,0,0,0-0.1,0l0,0V93.4C146.9,93.7,149.3,96.2,149.3,99.3z"/>
	<rect x="141.5" y="93.8" class="st8" width="2.3" height="11.5"/>
	<polygon class="st2" points="124.8,185.6 111,185.6 111,181.3 124.8,181 	"/>
	<polygon class="st0" points="124.8,180.7 124.8,181 116.2,181.3 116.2,174.1 124.8,164.6 	"/>
	<rect x="152.3" y="214.7" class="st1" width="36.1" height="2.3"/>
	<rect x="32" y="164.9" class="st9" width="56.1" height="47.9"/>
	<polygon class="st10" points="88,164.9 88,212.5 32,212.5 	"/>
	<rect x="35.6" y="129.8" class="st9" width="49.5" height="35.1"/>
	<polygon class="st10" points="85.1,129.8 35.6,164.9 85.1,164.9 	"/>
</g>
</svg>
